<?xml version="1.0" encoding="UTF-8"?>
<svg version="1.1" xmlns="http://www.w3.org/2000/svg" width="1000" height="430" viewBox="40 520 1000 430">
<path d="M0 0 C6.0148665 4.61687995 9.63107146 10.3228275 11.75 17.5625 C12.60616249 25.91008431 10.73545368 32.52909264 7 40 C17.99499484 41.59980084 27.49618401 40.79466124 38.3125 38.25 C83.92005693 27.67629242 145.2838391 25.64598642 189 45 C195.74308434 49.21798176 199.40023277 55.53244112 201.6171875 63.109375 C203.5046953 72.43135229 200.06562469 80.47026425 195.37890625 88.33203125 C194.43059937 89.93075073 194.43059937 89.93075073 193.46313477 91.56176758 C192.98030029 92.36638428 192.49746582 93.17100098 192 94 C193.19488037 94.01458252 194.38976074 94.02916504 195.62084961 94.04418945 C200.08842685 94.10251766 204.55551814 94.17974647 209.02270508 94.26245117 C210.94970769 94.295539 212.87680346 94.32362028 214.80395508 94.34643555 C217.58715209 94.38028037 220.36950771 94.4326086 223.15234375 94.48828125 C224.00271713 94.49467117 224.85309052 94.5010611 225.72923279 94.50764465 C230.94922923 94.63362501 235.24213418 95.49935689 240.12110901 97.38005066 C243.75917464 98.58044834 246.51237045 97.1671213 249.99047852 95.97509766 C254.78965205 94.62060947 259.5701527 94.6463278 264.52734375 94.5859375 C265.51626114 94.56657135 266.50517853 94.5472052 267.52406311 94.5272522 C270.66178951 94.46779378 273.79955328 94.42120644 276.9375 94.375 C279.07358311 94.33678916 281.20965133 94.29773564 283.34570312 94.2578125 C288.56366919 94.16212028 293.78172605 94.07697545 299 94 C299.66 92.02 300.32 90.04 301 88 C302.88936279 88.00954712 302.88936279 88.00954712 304.81689453 88.01928711 C309.55499464 88.0338751 314.29190558 88.0020718 319.02978516 87.95727539 C321.06815512 87.9442522 323.10664346 87.94329305 325.14501953 87.95532227 C338.1403252 88.02230838 347.96188818 87.3233397 359 80 C358.41276034 71.77961583 357.1925425 63.77136004 355.71484375 55.66796875 C355.49429825 54.43258865 355.27375275 53.19720856 355.04652405 51.9243927 C354.22924727 47.3464954 353.40405645 42.77004533 352.57733154 38.19384766 C351.76332487 33.68622527 350.95698835 29.17727393 350.15234375 24.66796875 C349.82894264 22.89597359 349.82894264 22.89597359 349.49900818 21.08818054 C349.30202835 19.98295547 349.10504852 18.87773041 348.90209961 17.73901367 C348.72746689 16.77291672 348.55283417 15.80681976 348.37290955 14.81144714 C347.97919689 11.84316079 347.93615895 8.99078488 348 6 C359.78931247 15.87012206 370.69703358 26.58524417 381.48876953 37.52563477 C385.98307197 42.06436403 390.51613874 46.45687578 395.39453125 50.58276367 C397 52 397 52 399.1875 54.5 C400.0846875 55.2425 400.0846875 55.2425 401 56 C404.61544003 55.59319677 407.34251978 54.46984826 410.4921875 52.69921875 C411.35062256 52.22258789 412.20905762 51.74595703 413.09350586 51.25488281 C414.01139893 50.73764648 414.92929199 50.22041016 415.875 49.6875 C417.85183938 48.59059825 419.82973894 47.49560539 421.80859375 46.40234375 C422.82808105 45.8388623 423.84756836 45.27538086 424.89794922 44.69482422 C430.82933491 41.45417575 436.83550063 38.35756356 442.83618164 35.24780273 C447.14251597 33.01451686 451.44259214 30.77398581 455.7109375 28.46875 C456.41226807 28.09008789 457.11359863 27.71142578 457.83618164 27.32128906 C459.11338786 26.62896282 460.38875615 25.93323028 461.66186523 25.23339844 C465.78232875 23 465.78232875 23 468 23 C466.30350074 28.80019342 463.65123393 34.04659767 460.984375 39.4453125 C460.4909259 40.45157684 459.99747681 41.45784119 459.48907471 42.49459839 C457.91292129 45.70648415 456.33149296 48.91574058 454.75 52.125 C453.70148551 54.26025101 452.65330504 56.39566609 451.60546875 58.53125 C451.09624878 59.56787781 450.58702881 60.60450562 450.06237793 61.67254639 C449.0599986 63.71319369 448.05843888 65.75424381 447.05773926 67.79571533 C445.0436275 71.89514308 443.02639819 75.98770579 440.89257812 80.02636719 C440.05629883 81.61819824 440.05629883 81.61819824 439.203125 83.2421875 C438.74067383 84.09409668 438.27822266 84.94600586 437.80175781 85.82373047 C436.85636346 88.38988311 436.95586168 89.49794512 438 92 C439.80029081 94.22006444 439.80029081 94.22006444 442.27127552 94.23771572 C443.22596068 94.23197568 444.18064585 94.22623564 445.16426086 94.22032166 C446.25889145 94.2187355 447.35352203 94.21714935 448.48132324 94.21551514 C449.68800659 94.20361145 450.89468994 94.19170776 452.13793945 94.17944336 C454.08284569 94.17249381 456.02775193 94.16554681 457.97265851 94.15869439 C460.06846991 94.14942246 462.16419924 94.13524081 464.25997353 94.11976433 C468.63652873 94.08794673 473.01304746 94.07245218 477.38969421 94.05970764 C488.27112159 94.02560827 499.15245312 93.97328987 510.03375244 93.9105835 C518.47110578 93.86196272 526.90836627 93.81992122 535.34584016 93.79907519 C539.68441125 93.7876334 544.02260193 93.76236632 548.36103499 93.72632778 C551.72024448 93.70237364 555.07943493 93.69840878 558.4387207 93.69116211 C559.62313751 93.67723419 560.80755432 93.66330627 562.02786255 93.6489563 C572.51828009 93.66045344 582.52407475 95.37222255 592 100 C592.33 98.35 592.66 96.7 593 95 C600.50253721 94.90676073 608.00501331 94.83596437 615.50800037 94.79275131 C618.99309262 94.7719967 622.47778455 94.74390618 625.96264648 94.69824219 C629.98164411 94.64591689 634.00023025 94.62695488 638.01953125 94.609375 C639.87019951 94.57840729 639.87019951 94.57840729 641.758255 94.54681396 C650.76202967 94.54450943 658.41584035 95.94389357 666 101 C669.61332198 100.92144952 672.21615437 100.3648673 675.50390625 98.83447266 C685.07853367 94.40254209 693.92176395 94.26180968 704.32080078 94.40307617 C707.12764285 94.43753244 709.93134844 94.42364321 712.73828125 94.40429688 C725.09097173 94.41346399 736.00380267 95.05953203 745.34765625 104.09765625 C749.72634992 109.13884731 751.03012512 113.66714414 751.75 120.25 C752.18823593 124.34803754 752.18823593 124.34803754 754.65234375 127.375 C756.02934847 127.96703274 757.42565908 128.51573727 758.8359375 129.0234375 C764.67640661 131.65902825 768.65758219 138.2740898 771 144 C773.58940248 151.06200676 771.9825716 158.37959486 769 165 C762.40826608 177.38062846 749.65638407 186.84097573 736.66796875 191.91015625 C734.09348003 193.59231633 733.90569135 195.65163656 733.125 198.5625 C730.71948367 206.3687281 727.22316099 213.50073115 720.05592346 217.91941833 C712.77346824 221.74703533 705.21997287 222.45881008 697.12890625 222.43359375 C695.62444191 222.44145653 695.62444191 222.44145653 694.08958435 222.44947815 C691.98282796 222.4558595 689.87603575 222.45461223 687.76928711 222.44604492 C684.57405229 222.43753078 681.380606 222.46635912 678.18554688 222.49804688 C676.12500053 222.4996593 674.06445106 222.49908057 672.00390625 222.49609375 C671.06398331 222.50732773 670.12406036 222.51856171 669.15565491 222.53013611 C661.45989582 222.45061621 654.87301243 220.43650622 648 217 C645.99780865 217.85679359 644.16250006 218.92426178 642.265625 219.9921875 C636.94555582 222.35870103 631.15048255 222.16320998 625.42431641 222.20532227 C624.58463318 222.21522186 623.74494995 222.22512146 622.87982178 222.23532104 C620.12043013 222.26676194 617.3610213 222.29162422 614.6015625 222.31640625 C612.68199226 222.33699083 610.7624264 222.35798769 608.84286499 222.37937927 C603.80250608 222.43444461 598.76210732 222.48392213 593.72167969 222.53222656 C588.57353184 222.58255535 583.42544151 222.63818191 578.27734375 222.69335938 C568.18494503 222.80075078 558.09249626 222.90223763 548 223 C545.525 229.435 545.525 229.435 543 236 C522.87 236 502.74 236 482 236 C485 225 485 225 486 222 C484.05163758 222.00553076 484.05163758 222.00553076 482.0639143 222.01117325 C451.20510341 222.09787311 420.34632549 222.16379627 389.48742197 222.20426132 C385.68619451 222.20926393 381.88496731 222.21444124 378.08374023 222.21972656 C377.3270095 222.2207758 376.57027876 222.22182505 375.79061679 222.22290608 C363.55040686 222.24029396 351.31027236 222.27182269 339.07010712 222.30861118 C326.50319081 222.34606571 313.9363139 222.36824537 301.36934406 222.37635398 C293.61974946 222.38183243 285.87036809 222.39911254 278.12083916 222.43166587 C272.17058986 222.45538219 266.22044899 222.45780847 260.27015114 222.45243073 C257.83495906 222.45352893 255.39975872 222.46145564 252.96461487 222.4768219 C249.6313243 222.49681957 246.2989348 222.49190287 242.96562195 222.48101807 C242.00936234 222.49266943 241.05310273 222.5043208 240.06786555 222.51632524 C232.10049558 222.4463409 225.03981285 220.42388771 218.1875 216.3125 C213.58925851 211.45150185 210.47843918 206.19609796 208 200 C199.585 226.73 199.585 226.73 191 254 C185.38302958 250.62981775 185.38302958 250.62981775 182.828125 248.5390625 C182.25416992 248.07363037 181.68021484 247.60819824 181.08886719 247.12866211 C180.48204102 246.63245361 179.87521484 246.13624512 179.25 245.625 C172.77723216 240.38114593 166.20034629 235.29154147 159.54785156 230.27783203 C158.8669043 229.7620459 158.18595703 229.24625977 157.484375 228.71484375 C156.88334961 228.26230225 156.28232422 227.80976074 155.66308594 227.34350586 C154 226 154 226 152.46972656 224.39282227 C150.93760596 222.74418445 150.93760596 222.74418445 148 222 C147.938125 222.804375 147.87625 223.60875 147.8125 224.4375 C144.42144081 239.30599031 130.433797 247.0779081 118.94091797 255.56445312 C116.20009861 257.59162518 113.47507963 259.63921413 110.75 261.6875 C107.94584964 263.79154873 105.14106682 265.8946646 102.33203125 267.9921875 C97.60435363 271.52627656 92.89237703 275.07796973 88.20703125 278.66796875 C79.0518586 285.67966168 69.86829397 292.62653528 60.48046875 299.32470703 C56.80899503 301.94918567 53.17845999 304.60967522 49.60546875 307.3671875 C48.53776245 308.18751465 48.53776245 308.18751465 47.44848633 309.02441406 C46.11755882 310.0517967 44.79259182 311.08697446 43.4753418 312.13183594 C35.87936201 317.98286193 28.57981358 320.12243047 19 319 C11.411883 317.44929489 6.68565482 314.44859924 1.65625 308.609375 C-3.29190678 300.81369403 -3.38897326 294.01980304 -3.1875 285 C-3.17396484 283.84371094 -3.16042969 282.68742187 -3.14648438 281.49609375 C-3.11137044 278.66356996 -3.06219 275.83203693 -3 273 C-3.60473145 272.68329346 -4.20946289 272.36658691 -4.83251953 272.0402832 C-12.60956827 267.86522774 -18.82652953 262.92941193 -21.5625 254.19140625 C-23.50364375 244.46835584 -21.42289963 236.50108869 -16.25 228.1875 C-10.40412048 222.50400602 -2.30710366 218 6 218 C6.1134375 216.99195313 6.226875 215.98390625 6.34375 214.9453125 C7.00147086 210.99115736 8.08494382 207.61831723 9.5 203.875 C10.98870494 199.9195456 12.30686287 196.1745759 13 192 C12.29875 191.814375 11.5975 191.62875 10.875 191.4375 C6.89366589 189.44683295 4.48671072 186.66345776 2 183 C1.62875 181.80375 1.2575 180.6075 0.875 179.375 C-1.71607873 174.71105828 -4.86268587 174.05934581 -9.796875 172.43359375 C-12.9672184 171.01467176 -13.73615697 170.19749833 -15.91821289 167.71459961 C-18.37847121 165.57982098 -19.41050969 164.97184082 -22.70462036 165.12919617 C-26.05339536 165.95552404 -29.25593192 166.99352281 -32.51171875 168.1328125 C-34.31863945 168.71154617 -34.31863945 168.71154617 -36.1620636 169.30197144 C-39.36460984 170.33199632 -42.55402352 171.39102885 -45.74066162 172.46856689 C-50.20291156 173.97314407 -54.67801629 175.43718657 -59.15937805 176.88375854 C-61.53992252 177.65449995 -63.91461363 178.44364991 -66.28190613 179.25418091 C-74.79990526 182.04564663 -83.79590715 184.05978809 -92.375 180.4375 C-98.34797204 176.89842093 -102.40608306 171.69007719 -104.52734375 165.09765625 C-105.97765556 158.66114845 -105.39843241 153.07803492 -102.41796875 147.16796875 C-97.76131898 140.04829762 -89.9770812 135.46800233 -83.1875 130.5625 C-82.40963135 129.99837402 -81.6317627 129.43424805 -80.83032227 128.85302734 C-77.31808736 126.32181242 -73.80473349 123.84549093 -70.1328125 121.55078125 C-67.04224859 119.5255529 -64.42478304 117.7889797 -62 115 C-61.27628528 111.02481337 -61.71345667 107.81198023 -63 104 C-64.84761747 102.15238253 -67.8233705 102.60888269 -70.3125 102.4375 C-71.46363281 102.35371094 -72.61476563 102.26992188 -73.80078125 102.18359375 C-75.200478 102.12142381 -76.60022359 102.06034964 -78 102 C-78.91080322 101.93458008 -79.82160645 101.86916016 -80.76000977 101.80175781 C-88.76028289 101.44656461 -94.2423033 103.26785818 -101.3125 106.875 C-111.94591822 112.10023097 -120.71231027 116.26562317 -132.5625 112.375 C-139.61417206 109.57578855 -144.00887109 106.31910763 -147.3125 99.4375 C-149.75293396 94.61319843 -152.73909858 93.21873178 -157.5703125 91.08984375 C-164.98541054 87.76377887 -168.05516311 82.215437 -171 75 C-173.29658287 67.48523202 -172.28300358 60.58300467 -169.36328125 53.421875 C-166.01413156 47.47209618 -162.64503463 44.36726762 -156.5 41.4375 C-155.82404785 41.11289795 -155.1480957 40.7882959 -154.45166016 40.45385742 C-151.97786214 39.27959299 -149.4910121 38.13729798 -147 37 C-145.97745117 36.53174805 -144.95490234 36.06349609 -143.90136719 35.58105469 C-127.42278331 28.06543561 -110.81868319 20.836532 -94.18548584 13.67060852 C-89.6520106 11.71627901 -85.1234775 9.75079579 -80.59698486 7.78034973 C-77.19273603 6.29857504 -73.78744619 4.81920122 -70.38208008 3.33999634 C-68.72034048 2.61752637 -67.05903909 1.89404761 -65.39819336 1.16952515 C-63.07658812 0.15703427 -60.75333632 -0.85158475 -58.4296875 -1.859375 C-57.73628265 -2.1629039 -57.04287781 -2.4664328 -56.32846069 -2.77915955 C-41.98026556 -8.98314549 -13.46472388 -8.71406525 0 0 Z " fill="#201B3F" transform="translate(237,564)"/>
<path d="M0 0 C1.48306641 0.06767578 1.48306641 0.06767578 2.99609375 0.13671875 C9.06112262 0.58208135 12.61365402 1.63818941 17.01660156 5.91552734 C19.84391282 9.26106707 19.5918768 12.09726655 19.25 16.375 C18.20080971 19.39213485 16.78025884 22.13827626 15.25 24.9375 C14.84644287 25.68894287 14.44288574 26.44038574 14.02709961 27.21459961 C11.07021759 32.47391017 7.95145725 36.87292164 2.25 39.375 C1.59 39.375 0.93 39.375 0.25 39.375 C0.25 40.035 0.25 40.695 0.25 41.375 C1.09175781 41.40078125 1.93351563 41.4265625 2.80078125 41.453125 C13.24290275 41.93023128 23.43694687 43.33845208 33.75512695 45.00292969 C43.01940715 46.46609935 50.04473819 46.86998674 59.11767578 44.20800781 C64.55712557 42.76144486 70.1101975 41.93702667 75.6652832 41.06738281 C77.68251234 40.7507828 79.6976858 40.42296299 81.71289062 40.09375 C110.32372529 35.48452858 140.67219265 35.62718325 169.25 40.375 C170.21184204 40.5347934 170.21184204 40.5347934 171.19311523 40.69781494 C176.11675027 41.5228652 181.02870091 42.40366828 185.9375 43.3125 C186.6064328 43.43361145 187.2753656 43.5547229 187.96456909 43.67950439 C201.48509659 46.16059994 201.48509659 46.16059994 207.25 50.375 C209.98080549 54.47120823 209.9559159 57.56365063 209.25 62.375 C207.99944379 65.78232284 206.28039487 68.81764104 204.4375 71.9375 C203.94266113 72.8030249 203.44782227 73.6685498 202.93798828 74.56030273 C193.9602328 90.0235706 183.3823145 103.9175791 171.29296875 117.0859375 C169.87992539 118.66919449 168.51898011 120.29993547 167.203125 121.96484375 C158.56099442 132.62923289 145.72726267 140.85744487 133.83203125 147.48828125 C133.27451172 147.80531006 132.71699219 148.12233887 132.14257812 148.44897461 C130.25 149.375 130.25 149.375 127.91992188 150.03735352 C121.90350252 152.0887757 119.42833211 155.16430641 116.69581604 160.68162537 C114.73170889 164.97455928 112.91629656 169.32022737 111.125 173.6875 C110.35458911 175.4967345 109.58117844 177.30469473 108.8046875 179.11132812 C106.91813081 183.5185819 105.07330017 187.94122427 103.25 192.375 C104.11165771 191.8903125 104.97331543 191.405625 105.86108398 190.90625 C109.0878746 189.09783045 112.32819463 187.31492699 115.57299805 185.5390625 C116.97031693 184.76981918 118.36397261 183.99387966 119.75366211 183.2109375 C128.88635811 178.07277197 135.0815953 174.94769806 145.76171875 177.07421875 C157.67805626 180.7825009 157.67805626 180.7825009 161.25 185.375 C162.45127462 192.25576415 160.2797391 198.68903888 158.0625 205.125 C157.77052734 206.04410156 157.47855469 206.96320313 157.17773438 207.91015625 C155.37983369 213.25359443 153.71691452 216.72712481 149.25 220.375 C148.6629126 220.85662598 148.0758252 221.33825195 147.47094727 221.83447266 C145.37864493 223.5253524 143.25721441 225.17226397 141.125 226.8125 C140.33585205 227.42303223 139.5467041 228.03356445 138.73364258 228.66259766 C132.41773279 233.52693983 126.01550651 238.26785476 119.58081055 242.97338867 C113.47327122 247.4473497 107.44652181 252.01979371 101.4375 256.625 C95.76952907 260.96622843 90.09165354 265.2698404 84.25 269.375 C77.16355682 274.36365133 70.30191213 279.63517818 63.44335938 284.93164062 C62.58419922 285.59228516 61.72503906 286.25292969 60.83984375 286.93359375 C60.07534912 287.52454834 59.31085449 288.11550293 58.52319336 288.72436523 C54.08751147 291.94524863 50.9376656 293.99858519 45.25 293.8046875 C41.63931815 293.02895507 39.79734775 290.98447818 37.25 288.375 C35.77094762 285.41689524 36.12809097 282.4202845 36.15234375 279.1796875 C36.15446617 278.11852219 36.15446617 278.11852219 36.15663147 277.03591919 C36.162234 274.77390331 36.17478682 272.51198602 36.1875 270.25 C36.19251468 268.71744935 36.19707764 267.18489714 36.20117188 265.65234375 C36.21220423 261.89319112 36.22947048 258.13411228 36.25 254.375 C35.12980469 253.78332031 34.00960937 253.19164062 32.85546875 252.58203125 C31.38244428 251.78453392 29.90980817 250.98631896 28.4375 250.1875 C27.69951172 249.80013672 26.96152344 249.41277344 26.20117188 249.01367188 C21.99981115 246.71337935 19.15924567 244.97921936 17.25 240.375 C16.81640625 238.3125 16.81640625 238.3125 16.8125 236.375 C16.79316406 235.735625 16.77382812 235.09625 16.75390625 234.4375 C17.50430304 231.31774011 19.03801559 229.66849808 21.25 227.375 C27.46578272 223.93856012 34.32361322 221.8401972 41.25 220.375 C41.38317627 219.82674561 41.51635254 219.27849121 41.65356445 218.71362305 C44.32095199 208.35095831 47.95121473 198.29538165 51.4375 188.1875 C52.09862346 186.26247835 52.75943344 184.337349 53.41992188 182.41210938 C55.02633407 177.73182269 56.63698959 173.05301657 58.25 168.375 C57.26 168.705 56.27 169.035 55.25 169.375 C50.12223242 169.85920096 45.73414077 170.22308044 41.1875 167.625 C37.60789771 163.46804251 37.00565682 160.61478623 37.125 155.125 C37.14304688 154.04734375 37.16109375 152.9696875 37.1796875 151.859375 C37.20289063 151.03953125 37.22609375 150.2196875 37.25 149.375 C35.73019531 149.46201172 35.73019531 149.46201172 34.1796875 149.55078125 C21.99190121 150.05177396 21.99190121 150.05177396 18.5 147.5 C15.92128784 143.91845533 14.83182167 140.74052394 13.79296875 136.484375 C13.44793965 134.40343443 13.44793965 134.40343443 12.25 133.375 C11.5075 134.73625 11.5075 134.73625 10.75 136.125 C5.94222086 143.23409999 -4.53103553 145.08971062 -12.28125 147.484375 C-13.4717395 147.85604797 -14.662229 148.22772095 -15.88879395 148.61065674 C-19.03386574 149.58924607 -22.18107108 150.56060282 -25.32891846 151.5302124 C-27.25021264 152.12506584 -29.16914029 152.7269883 -31.08740234 153.33154297 C-34.79434732 154.49827067 -38.50574341 155.64960333 -42.21875 156.796875 C-43.35542114 157.15618103 -44.49209229 157.51548706 -45.66320801 157.88568115 C-59.07617541 161.97231504 -59.07617541 161.97231504 -65.625 159.125 C-68.41671471 156.82594083 -69.53503701 154.77225946 -70.0859375 151.19140625 C-70.09882813 150.44761719 -70.11171875 149.70382812 -70.125 148.9375 C-70.15335938 148.19628906 -70.18171875 147.45507812 -70.2109375 146.69140625 C-68.91235949 140.1655015 -62.24359702 136.55402801 -57.1875 132.9375 C-55.48291745 131.70073507 -53.77849517 130.46374924 -52.07421875 129.2265625 C-51.19813965 128.59395508 -50.32206055 127.96134766 -49.41943359 127.30957031 C-45.09144879 124.17302819 -40.7974623 120.99065886 -36.5 117.8125 C-31.28013502 113.95623156 -26.04095963 110.13326101 -20.75 106.375 C-21.08 105.694375 -21.41 105.01375 -21.75 104.3125 C-22.9742831 100.71616838 -23.14824113 98.15829077 -22.75 94.375 C-20.75 90.9375 -20.75 90.9375 -18.75 88.375 C-19.56404297 88.01148438 -19.56404297 88.01148438 -20.39453125 87.640625 C-27.86764706 84.13970588 -27.86764706 84.13970588 -29.75 80.375 C-29.75 79.055 -29.75 77.735 -29.75 76.375 C-62.02309379 74.49238706 -62.02309379 74.49238706 -91.9765625 84.96875 C-96.57497072 87.52494277 -99.52868424 88.06201523 -104.75 87.375 C-108.125 85.375 -108.125 85.375 -110.75 82.375 C-110.95625 81.09625 -111.1625 79.8175 -111.375 78.5 C-111.95470786 75.23760153 -112.61915202 74.47502512 -115.3203125 72.41015625 C-119.46281164 70.00302837 -123.68068484 67.87265264 -128.0234375 65.8515625 C-131.60537617 63.91177336 -132.40814907 62.17691098 -133.75 58.375 C-134.3311937 55.33987732 -134.3780536 53.47508756 -132.82421875 50.75341797 C-128.11569971 44.71324919 -122.11653588 42.34632577 -115.1875 39.4375 C-113.90748201 38.88423374 -112.62820392 38.32925301 -111.34960938 37.77270508 C-108.60053231 36.57993412 -105.84694963 35.39852926 -103.08935547 34.22558594 C-98.68675362 32.35185771 -94.29763845 30.44787498 -89.91015625 28.5390625 C-82.96268887 25.51958845 -76.00860762 22.51577993 -69.05096436 19.51983643 C-60.5476605 15.85815257 -52.04857297 12.18673897 -43.55053711 8.5128479 C-41.10101819 7.45414785 -38.65112145 6.39632606 -36.20117188 5.33862305 C-34.71352861 4.69583101 -33.22589772 4.05301032 -31.73828125 3.41015625 C-31.0567952 3.11615936 -30.37530914 2.82216248 -29.673172 2.51925659 C-19.83720017 -1.73401194 -10.65470725 -0.74794634 0 0 Z " fill="#201E41" transform="translate(214.75,572.625)"/>
<path d="M0 0 C1.07914169 0.00190338 1.07914169 0.00190338 2.18008423 0.00384521 C21.69906221 0.06890579 40.65186228 1.37059413 59.8125 5.1875 C60.80496231 5.38463593 60.80496231 5.38463593 61.81747437 5.58575439 C72.7902061 7.7976374 72.7902061 7.7976374 76.375 10.1875 C75.66214844 10.9609375 74.94929687 11.734375 74.21484375 12.53125 C73.24734544 13.58328699 72.27990043 14.635373 71.3125 15.6875 C70.61350586 16.44546875 70.61350586 16.44546875 69.90039062 17.21875 C67.21203117 20.14485553 64.56779809 23.10251934 61.9609375 26.1015625 C56.53201476 32.32773963 50.84554501 38.31241115 45.15966797 44.30322266 C44.06604886 45.45788097 42.97572211 46.61568251 41.89111328 47.77880859 C35.97110954 54.12650151 29.95621063 58.95331321 22.375 63.1875 C21.385 63.74953125 20.395 64.3115625 19.375 64.890625 C-8.12048018 79.56369375 -41.82804812 86.880776 -72.625 90.1875 C-72.58117187 89.00414062 -72.53734375 87.82078125 -72.4921875 86.6015625 C-72.28921554 77.3773426 -72.28921554 77.3773426 -75.671875 69.046875 C-78.17555527 66.55953517 -78.17555527 66.55953517 -80.7890625 64.5234375 C-83.79447423 62.04790552 -86.14934341 59.38280337 -88.67480469 56.43505859 C-92.29407066 52.26393159 -96.10019833 48.28233498 -99.9375 44.3125 C-100.72833984 43.45914063 -101.51917969 42.60578125 -102.33398438 41.7265625 C-107.86480878 36.04747067 -111.77568997 33.87662096 -119.625 33.1875 C-121.48283445 32.91069271 -123.33960799 32.62668118 -125.1953125 32.3359375 C-127.04646699 32.07521152 -128.89803502 31.81740529 -130.75 31.5625 C-131.70648438 31.4284375 -132.66296875 31.294375 -133.6484375 31.15625 C-135.97360807 30.83072612 -138.29911161 30.50784731 -140.625 30.1875 C-140.625 29.5275 -140.625 28.8675 -140.625 28.1875 C-129.86009217 24.79910283 -119.02225361 22.05705946 -108.01635742 19.56665039 C-99.50808227 17.63633585 -91.02904265 15.60587145 -82.5625 13.5 C-81.40387451 13.21463379 -80.24524902 12.92926758 -79.05151367 12.63525391 C-73.46000851 11.23686621 -67.98014871 9.71364136 -62.53198242 7.83276367 C-54.46194569 5.10211368 -45.9595791 3.84259542 -37.5625 2.5625 C-36.76030029 2.43939453 -35.95810059 2.31628906 -35.1315918 2.18945312 C-23.43214695 0.47808873 -11.8170932 -0.02158498 0 0 Z " fill="#24B3BA" transform="translate(335.625,619.8125)"/>
<path d="M0 0 C1.48306641 0.06767578 1.48306641 0.06767578 2.99609375 0.13671875 C9.06112262 0.58208135 12.61365402 1.63818941 17.01660156 5.91552734 C19.84391282 9.26106707 19.5918768 12.09726655 19.25 16.375 C18.20080971 19.39213485 16.78025884 22.13827626 15.25 24.9375 C14.84644287 25.68894287 14.44288574 26.44038574 14.02709961 27.21459961 C11.07021759 32.47391017 7.95145725 36.87292164 2.25 39.375 C1.59 39.375 0.93 39.375 0.25 39.375 C0.25 40.035 0.25 40.695 0.25 41.375 C1.09175781 41.40078125 1.93351563 41.4265625 2.80078125 41.453125 C13.24290275 41.93023128 23.43694687 43.33845208 33.75512695 45.00292969 C43.01940715 46.46609935 50.04473819 46.86998674 59.11767578 44.20800781 C64.55712557 42.76144486 70.1101975 41.93702667 75.6652832 41.06738281 C77.68251234 40.7507828 79.6976858 40.42296299 81.71289062 40.09375 C110.32372529 35.48452858 140.67219265 35.62718325 169.25 40.375 C170.21184204 40.5347934 170.21184204 40.5347934 171.19311523 40.69781494 C176.11675027 41.5228652 181.02870091 42.40366828 185.9375 43.3125 C186.6064328 43.43361145 187.2753656 43.5547229 187.96456909 43.67950439 C201.48509659 46.16059994 201.48509659 46.16059994 207.25 50.375 C209.98080549 54.47120823 209.9559159 57.56365063 209.25 62.375 C207.99944379 65.78232284 206.28039487 68.81764104 204.4375 71.9375 C203.94266113 72.8030249 203.44782227 73.6685498 202.93798828 74.56030273 C193.9602328 90.0235706 183.3823145 103.9175791 171.29296875 117.0859375 C169.87992539 118.66919449 168.51898011 120.29993547 167.203125 121.96484375 C158.56099442 132.62923289 145.72726267 140.85744487 133.83203125 147.48828125 C133.27451172 147.80531006 132.71699219 148.12233887 132.14257812 148.44897461 C130.25 149.375 130.25 149.375 127.91992188 150.03735352 C121.90350252 152.0887757 119.42833211 155.16430641 116.69581604 160.68162537 C114.73170889 164.97455928 112.91629656 169.32022737 111.125 173.6875 C110.35458911 175.4967345 109.58117844 177.30469473 108.8046875 179.11132812 C106.91813081 183.5185819 105.07330017 187.94122427 103.25 192.375 C104.11165771 191.8903125 104.97331543 191.405625 105.86108398 190.90625 C109.0878746 189.09783045 112.32819463 187.31492699 115.57299805 185.5390625 C116.97031693 184.76981918 118.36397261 183.99387966 119.75366211 183.2109375 C128.88635811 178.07277197 135.0815953 174.94769806 145.76171875 177.07421875 C157.67805626 180.7825009 157.67805626 180.7825009 161.25 185.375 C162.45127462 192.25576415 160.2797391 198.68903888 158.0625 205.125 C157.77052734 206.04410156 157.47855469 206.96320313 157.17773438 207.91015625 C155.37983369 213.25359443 153.71691452 216.72712481 149.25 220.375 C148.6629126 220.85662598 148.0758252 221.33825195 147.47094727 221.83447266 C145.37864493 223.5253524 143.25721441 225.17226397 141.125 226.8125 C140.33585205 227.42303223 139.5467041 228.03356445 138.73364258 228.66259766 C132.41773279 233.52693983 126.01550651 238.26785476 119.58081055 242.97338867 C113.47327122 247.4473497 107.44652181 252.01979371 101.4375 256.625 C95.76952907 260.96622843 90.09165354 265.2698404 84.25 269.375 C77.16355682 274.36365133 70.30191213 279.63517818 63.44335938 284.93164062 C62.58419922 285.59228516 61.72503906 286.25292969 60.83984375 286.93359375 C60.07534912 287.52454834 59.31085449 288.11550293 58.52319336 288.72436523 C54.08751147 291.94524863 50.9376656 293.99858519 45.25 293.8046875 C41.63931815 293.02895507 39.79734775 290.98447818 37.25 288.375 C35.77094762 285.41689524 36.12809097 282.4202845 36.15234375 279.1796875 C36.15446617 278.11852219 36.15446617 278.11852219 36.15663147 277.03591919 C36.162234 274.77390331 36.17478682 272.51198602 36.1875 270.25 C36.19251468 268.71744935 36.19707764 267.18489714 36.20117188 265.65234375 C36.21220423 261.89319112 36.22947048 258.13411228 36.25 254.375 C35.12980469 253.78332031 34.00960937 253.19164062 32.85546875 252.58203125 C31.38244428 251.78453392 29.90980817 250.98631896 28.4375 250.1875 C27.69951172 249.80013672 26.96152344 249.41277344 26.20117188 249.01367188 C21.99981115 246.71337935 19.15924567 244.97921936 17.25 240.375 C16.81640625 238.3125 16.81640625 238.3125 16.8125 236.375 C16.79316406 235.735625 16.77382812 235.09625 16.75390625 234.4375 C17.50430304 231.31774011 19.03801559 229.66849808 21.25 227.375 C27.46578272 223.93856012 34.32361322 221.8401972 41.25 220.375 C41.38317627 219.82674561 41.51635254 219.27849121 41.65356445 218.71362305 C44.32095199 208.35095831 47.95121473 198.29538165 51.4375 188.1875 C52.09862346 186.26247835 52.75943344 184.337349 53.41992188 182.41210938 C55.02633407 177.73182269 56.63698959 173.05301657 58.25 168.375 C57.26 168.705 56.27 169.035 55.25 169.375 C50.12223242 169.85920096 45.73414077 170.22308044 41.1875 167.625 C37.60789771 163.46804251 37.00565682 160.61478623 37.125 155.125 C37.14304688 154.04734375 37.16109375 152.9696875 37.1796875 151.859375 C37.20289063 151.03953125 37.22609375 150.2196875 37.25 149.375 C35.73019531 149.46201172 35.73019531 149.46201172 34.1796875 149.55078125 C21.99190121 150.05177396 21.99190121 150.05177396 18.5 147.5 C15.92128784 143.91845533 14.83182167 140.74052394 13.79296875 136.484375 C13.44793965 134.40343443 13.44793965 134.40343443 12.25 133.375 C11.5075 134.73625 11.5075 134.73625 10.75 136.125 C5.94222086 143.23409999 -4.53103553 145.08971062 -12.28125 147.484375 C-13.4717395 147.85604797 -14.662229 148.22772095 -15.88879395 148.61065674 C-19.03386574 149.58924607 -22.18107108 150.56060282 -25.32891846 151.5302124 C-27.25021264 152.12506584 -29.16914029 152.7269883 -31.08740234 153.33154297 C-34.79434732 154.49827067 -38.50574341 155.64960333 -42.21875 156.796875 C-43.35542114 157.15618103 -44.49209229 157.51548706 -45.66320801 157.88568115 C-59.07617541 161.97231504 -59.07617541 161.97231504 -65.625 159.125 C-68.41671471 156.82594083 -69.53503701 154.77225946 -70.0859375 151.19140625 C-70.09882813 150.44761719 -70.11171875 149.70382812 -70.125 148.9375 C-70.15335938 148.19628906 -70.18171875 147.45507812 -70.2109375 146.69140625 C-68.91235949 140.1655015 -62.24359702 136.55402801 -57.1875 132.9375 C-55.48291745 131.70073507 -53.77849517 130.46374924 -52.07421875 129.2265625 C-51.19813965 128.59395508 -50.32206055 127.96134766 -49.41943359 127.30957031 C-45.09144879 124.17302819 -40.7974623 120.99065886 -36.5 117.8125 C-31.28013502 113.95623156 -26.04095963 110.13326101 -20.75 106.375 C-21.08 105.694375 -21.41 105.01375 -21.75 104.3125 C-22.9742831 100.71616838 -23.14824113 98.15829077 -22.75 94.375 C-20.75 90.9375 -20.75 90.9375 -18.75 88.375 C-19.56404297 88.01148438 -19.56404297 88.01148438 -20.39453125 87.640625 C-27.86764706 84.13970588 -27.86764706 84.13970588 -29.75 80.375 C-29.75 79.055 -29.75 77.735 -29.75 76.375 C-62.02309379 74.49238706 -62.02309379 74.49238706 -91.9765625 84.96875 C-96.57497072 87.52494277 -99.52868424 88.06201523 -104.75 87.375 C-108.125 85.375 -108.125 85.375 -110.75 82.375 C-110.95625 81.09625 -111.1625 79.8175 -111.375 78.5 C-111.95470786 75.23760153 -112.61915202 74.47502512 -115.3203125 72.41015625 C-119.46281164 70.00302837 -123.68068484 67.87265264 -128.0234375 65.8515625 C-131.60537617 63.91177336 -132.40814907 62.17691098 -133.75 58.375 C-134.3311937 55.33987732 -134.3780536 53.47508756 -132.82421875 50.75341797 C-128.11569971 44.71324919 -122.11653588 42.34632577 -115.1875 39.4375 C-113.90748201 38.88423374 -112.62820392 38.32925301 -111.34960938 37.77270508 C-108.60053231 36.57993412 -105.84694963 35.39852926 -103.08935547 34.22558594 C-98.68675362 32.35185771 -94.29763845 30.44787498 -89.91015625 28.5390625 C-82.96268887 25.51958845 -76.00860762 22.51577993 -69.05096436 19.51983643 C-60.5476605 15.85815257 -52.04857297 12.18673897 -43.55053711 8.5128479 C-41.10101819 7.45414785 -38.65112145 6.39632606 -36.20117188 5.33862305 C-34.71352861 4.69583101 -33.22589772 4.05301032 -31.73828125 3.41015625 C-31.0567952 3.11615936 -30.37530914 2.82216248 -29.673172 2.51925659 C-19.83720017 -1.73401194 -10.65470725 -0.74794634 0 0 Z M-33.4375 10.625 C-34.71970303 11.20035602 -36.00277626 11.77377586 -37.28662109 12.34545898 C-40.15890339 13.6256604 -43.02767316 14.91337446 -45.89501953 16.20458984 C-54.18729014 19.92548873 -62.53574831 23.51921706 -70.87426758 27.1348877 C-73.8673902 28.4341966 -76.85874766 29.73748826 -79.84960938 31.04199219 C-88.48467803 34.80597357 -97.12366968 38.55445853 -105.81640625 42.18359375 C-107.1398276 42.73881183 -108.46323325 43.29406731 -109.78662109 43.84936523 C-112.14343056 44.83423232 -114.50419731 45.80970685 -116.86962891 46.77368164 C-118.39402588 47.41164673 -118.39402588 47.41164673 -119.94921875 48.0625 C-120.81377686 48.41699219 -121.67833496 48.77148438 -122.5690918 49.13671875 C-125.08177695 50.56337711 -126.27809479 51.90255861 -127.75 54.375 C-127.91210219 56.98148505 -127.91210219 56.98148505 -126.75 59.375 C-125.12634986 60.44342782 -123.44764578 61.42854525 -121.75 62.375 C-120.58883865 63.05427436 -119.42873921 63.73536619 -118.26953125 64.41796875 C-117.03421168 65.13343014 -115.79852852 65.84826408 -114.5625 66.5625 C-113.61987305 67.11454102 -113.61987305 67.11454102 -112.65820312 67.67773438 C-109.41608389 69.70347341 -109.41608389 69.70347341 -105.75 70.375 C-105.81510417 72.36067708 -105.88020833 74.34635417 -105.9453125 76.33203125 C-105.88254462 78.68859719 -105.88254462 78.68859719 -103.75 81.375 C-99.49880942 82.27416317 -96.99072658 81.0951921 -93.41796875 78.96875 C-71.8300708 66.45875674 -47.88566661 69.31913124 -23.75 70.375 C-23.9464209 71.48125732 -24.1428418 72.58751465 -24.34521484 73.72729492 C-25.13310205 77.32664692 -25.13310205 77.32664692 -23.2265625 79.73828125 C-20.14569449 81.77437541 -17.78256122 82.14555453 -14.125 82.5625 C-7.87130178 83.31434911 -7.87130178 83.31434911 -5.75 84.375 C-6.5440625 85.11105469 -7.338125 85.84710937 -8.15625 86.60546875 C-9.18815056 87.59046474 -10.21936506 88.57617983 -11.25 89.5625 C-11.77464844 90.04525391 -12.29929687 90.52800781 -12.83984375 91.02539062 C-15.17457391 93.28431786 -16.63974407 94.81966684 -17.28125 98.05078125 C-16.64748013 100.82352445 -15.91844761 101.58254309 -13.75 103.375 C-11.73402545 104.09728808 -11.73402545 104.09728808 -9.53125 104.5859375 C-3.94072243 106.32958506 -0.99309664 109.64644768 2.75 114 C4.04382542 115.45468114 5.33939064 116.90781679 6.63671875 118.359375 C7.25337402 119.05611328 7.8700293 119.75285156 8.50537109 120.47070312 C10.72068431 122.88876121 13.1240623 125.05973932 15.5625 127.25 C19.3677513 130.94144939 20.39301794 134.0673789 20.8359375 139.30859375 C21.07581008 141.76937595 21.07581008 141.76937595 24.25 143.375 C26.38145658 143.55914089 26.38145658 143.55914089 28.69921875 143.3515625 C29.54677734 143.3 30.39433594 143.2484375 31.26757812 143.1953125 C32.58918945 143.09863281 32.58918945 143.09863281 33.9375 143 C34.83017578 142.94328125 35.72285156 142.8865625 36.64257812 142.828125 C38.84587413 142.68673702 41.04801539 142.53534022 43.25 142.375 C43.21519531 143.63957031 43.18039062 144.90414062 43.14453125 146.20703125 C43.11639323 147.86717423 43.08909309 149.52733156 43.0625 151.1875 C43.03736328 152.02087891 43.01222656 152.85425781 42.98632812 153.71289062 C42.97666016 154.51533203 42.96699219 155.31777344 42.95703125 156.14453125 C42.93346558 157.25211792 42.93346558 157.25211792 42.90942383 158.38208008 C43.35132544 160.96791723 44.16153981 161.82510948 46.25 163.375 C53.25764019 164.13946984 59.5268616 162.22213661 66.25 160.375 C62.10576822 175.03236343 57.27497594 189.43411498 52.3840332 203.85644531 C51.37073059 206.84834838 50.36283708 209.84203218 49.35546875 212.8359375 C48.88683662 214.20919693 48.88683662 214.20919693 48.40873718 215.61019897 C48.12456436 216.45603546 47.84039154 217.30187195 47.54760742 218.17333984 C47.29621506 218.91482269 47.04482269 219.65630554 46.78581238 220.42025757 C46.11782127 222.51940438 46.11782127 222.51940438 46.25 225.375 C45.033125 225.601875 43.81625 225.82875 42.5625 226.0625 C32.1456327 228.22737536 32.1456327 228.22737536 23.25 233.375 C22.49755499 236.2025989 22.49755499 236.2025989 23.25 239.375 C25.62833282 241.52651634 28.42823965 242.88059572 31.25 244.375 C33.06882734 245.42663188 34.8813658 246.4892145 36.6875 247.5625 C37.53183594 248.05105469 38.37617188 248.53960938 39.24609375 249.04296875 C41.25 250.375 41.25 250.375 42.25 252.375 C42.31233979 254.83286249 42.31717623 257.2622208 42.27734375 259.71875 C42.2647002 261.20702895 42.25233904 262.69531032 42.24023438 264.18359375 C42.21537569 266.53409315 42.18736581 268.88446791 42.15405273 271.23486328 C42.12392553 273.50033383 42.10610085 275.76564354 42.08984375 278.03125 C42.07638412 278.73648804 42.0629245 279.44172607 42.04905701 280.16833496 C42.04008515 281.90515883 42.13649597 283.6418657 42.25 285.375 C44.09974989 287.59358589 44.09974989 287.59358589 46.84375 287.8984375 C51.93209396 287.11651308 54.86710859 284.23885314 58.75 281 C60.36671706 279.69571649 61.98522175 278.39364584 63.60546875 277.09375 C64.39872559 276.45308594 65.19198242 275.81242187 66.00927734 275.15234375 C68.95457378 272.81613128 71.98158278 270.6547972 75.0625 268.5 C80.96964824 264.35655621 86.71006512 260.01288723 92.4375 255.625 C99.18399131 250.45733301 105.96013926 245.33904603 112.8125 240.3125 C119.56085909 235.35881889 126.29349243 230.38525384 133 225.375 C133.82185791 224.76390381 134.64371582 224.15280762 135.49047852 223.52319336 C137.04009595 222.36325608 138.5826087 221.19375061 140.11694336 220.01367188 C141.48066743 218.96602212 142.86058784 217.9389188 144.26000977 216.93945312 C149.38898076 213.04221894 151.00818946 208.99282821 152.6875 202.875 C153.06938477 201.63169922 153.06938477 201.63169922 153.45898438 200.36328125 C154.76703294 195.92790364 155.56080682 192.04468303 155.25 187.375 C153.60950113 186.7157341 151.96219962 186.07339245 150.3125 185.4375 C149.39597656 185.07785156 148.47945313 184.71820312 147.53515625 184.34765625 C146.45105469 184.02667969 145.36695313 183.70570313 144.25 183.375 C143.642771 183.16963623 143.03554199 182.96427246 142.40991211 182.75268555 C134.04845775 180.7816231 126.7436452 186.16931146 119.6875 190.0625 C118.30385193 190.80611965 116.91909207 191.54767446 115.53320312 192.28710938 C112.9070518 193.69103268 110.28684522 195.10507196 107.67138672 196.52880859 C103.90157136 198.56301323 100.09956909 200.49728226 96.25 202.375 C95.16365318 193.16643397 99.07335117 186.13228954 102.9375 178.0625 C103.88529149 176.0434397 104.82820835 174.02214933 105.77102661 172.00076294 C106.38602971 170.68285872 107.00260834 169.36568849 107.62081909 168.04928589 C112.81214342 158.53496791 112.81214342 158.53496791 115.25 148.375 C115.80179932 148.20701904 116.35359863 148.03903809 116.92211914 147.8659668 C122.47372839 146.10616028 127.55853919 143.9374253 132.6875 141.1875 C133.42830811 140.79095215 134.16911621 140.3944043 134.93237305 139.98583984 C140.93106731 136.69545006 146.16200596 132.96171384 151.25 128.375 C152.18972656 127.55386719 153.12945312 126.73273438 154.09765625 125.88671875 C171.91761889 110.12468934 199.78457388 82.16755671 203.8125 58 C203.49703722 55.3041999 203.49703722 55.3041999 201.56274414 53.8046875 C198.92307012 52.17289915 196.71196955 51.5440453 193.68359375 50.875 C192.57290527 50.6289502 191.4622168 50.38290039 190.31787109 50.12939453 C189.11984863 49.88044434 187.92182617 49.63149414 186.6875 49.375 C185.43533691 49.11444824 184.18317383 48.85389648 182.89306641 48.58544922 C141.80636014 40.33715753 94.10408344 39.24019937 53.796875 52.046875 C46.57834326 54.30384507 39.95376538 52.67764237 32.62890625 51.44921875 C31.58057617 51.27350342 30.53224609 51.09778809 29.45214844 50.91674805 C26.44252377 50.40757169 23.43399546 49.89243529 20.42578125 49.375 C8.72675633 47.37271228 -2.94256885 45.59424561 -14.75 44.375 C-14.75 43.715 -14.75 43.055 -14.75 42.375 C-13.04101562 41.28442383 -13.04101562 41.28442383 -10.65625 40.08203125 C1.1125516 33.83164138 9.15711836 28.46305808 13.25 15.375 C13.72879412 11.7930663 13.72879412 11.7930663 12.02685547 8.78027344 C9.77084911 6.99605077 8.31375053 6.87337376 5.4609375 6.64453125 C4.51863281 6.56396484 3.57632813 6.48339844 2.60546875 6.40039062 C1.62191406 6.33013672 0.63835937 6.25988281 -0.375 6.1875 C-1.33535156 6.10564453 -2.29570312 6.02378906 -3.28515625 5.93945312 C-6.10551241 5.71175816 -8.92548037 5.54158272 -11.75 5.375 C-12.49967041 5.29781738 -13.24934082 5.22063477 -14.02172852 5.14111328 C-21.25195111 4.65257361 -26.98818761 7.65277344 -33.4375 10.625 Z " fill="#24AFB6" transform="translate(214.75,572.625)"/>
<path d="M0 0 C2.03811646 0.34362161 4.07888272 0.66613491 6.12060547 0.98754883 C7.41611328 1.2034668 8.71162109 1.41938477 10.04638672 1.6418457 C11.80474854 1.93248901 11.80474854 1.93248901 13.59863281 2.22900391 C16.64639819 3.02815776 18.31743377 3.95360999 20.64794922 6.02856445 C20.33121508 14.73875339 16.49413272 20.55567653 10.27294922 26.52856445 C-2.44297606 36.95224514 -19.23201162 44.07330633 -34.99780273 48.36230469 C-37.21055089 48.98851953 -39.37000744 49.69662661 -41.54345703 50.4465332 C-46.24521236 52.02603669 -50.98962002 53.34623973 -55.78955078 54.59106445 C-56.62139893 54.80722412 -57.45324707 55.02338379 -58.31030273 55.24609375 C-69.59848118 58.15015688 -69.59848118 58.15015688 -75.35205078 59.02856445 C-76.00689453 59.19356445 -76.66173828 59.35856445 -77.33642578 59.52856445 C-79.75861723 59.91611508 -81.02493413 59.86820178 -83.35205078 59.02856445 C-87.44936902 55.72101915 -90.8733213 51.9721692 -94.35205078 48.02856445 C-95.00431641 47.29250977 -95.65658203 46.55645508 -96.32861328 45.7980957 C-97.44743314 44.5183497 -98.55601471 43.22956115 -99.65283203 41.9309082 C-101.56677982 39.78816665 -103.63025749 37.86675676 -105.72705078 35.90356445 C-108.42848208 33.26471457 -109.28533784 32.26205975 -110.35205078 28.52856445 C-110.35205078 27.70356445 -110.35205078 26.87856445 -110.35205078 26.02856445 C-99.10677247 16.44849188 -84.1021001 13.98834765 -70.10888672 10.68823242 C-65.40356401 9.56232187 -60.74122698 8.2908418 -56.07080078 7.02856445 C-53.24002373 6.2673471 -50.40729158 5.51793409 -47.57080078 4.77856445 C-46.74225586 4.56232422 -45.91371094 4.34608398 -45.06005859 4.12329102 C-43.3956216 3.68928633 -41.7309127 3.25632295 -40.06591797 2.82446289 C-35.92477957 1.74129161 -31.8520774 0.57023999 -27.78955078 -0.78393555 C-18.64328267 -3.53025668 -9.22076431 -1.56674375 0 0 Z " fill="#211E42" transform="translate(361.35205078125,626.971435546875)"/>
<path d="M0 0 C0.79728516 -0.00257813 1.59457031 -0.00515625 2.41601562 -0.0078125 C3.63901367 0.00378906 3.63901367 0.00378906 4.88671875 0.015625 C5.69044922 0.00789062 6.49417969 0.00015625 7.32226562 -0.0078125 C16.9955301 0.02331627 24.40178629 1.51414795 31.57421875 8.265625 C34.81485055 11.91133577 35.77179509 14.2018103 35.66796875 18.96484375 C35.64766602 20.17466919 35.64766602 20.17466919 35.62695312 21.40893555 C35.60955078 22.02164307 35.59214844 22.63435059 35.57421875 23.265625 C34.48890869 23.29068115 33.40359863 23.3157373 32.28540039 23.34155273 C28.27290275 23.43546255 24.26058493 23.53572267 20.24829102 23.63793945 C18.50907587 23.68135073 16.7698164 23.72302112 15.03051758 23.76293945 C12.53583387 23.82049268 10.04137465 23.8842292 7.546875 23.94921875 C6.76458023 23.96593124 5.98228546 23.98264374 5.17628479 23.99986267 C1.57550094 23.77211231 1.57550094 23.77211231 -1.42578125 25.265625 C-1.59244792 27.765625 -1.59244792 27.765625 -1.42578125 30.265625 C0.55250947 32.24391572 4.39748902 31.52066432 7.109375 31.58203125 C8.23925087 31.6132029 8.23925087 31.6132029 9.39195251 31.64500427 C11.80677865 31.71057925 14.22171673 31.76942121 16.63671875 31.828125 C18.27019404 31.8713027 19.90365785 31.91491673 21.53710938 31.95898438 C25.54936339 32.06626862 29.56173039 32.16751321 33.57421875 32.265625 C31.59466947 37.00981392 29.59480191 41.05511515 26.57421875 45.265625 C26.01734375 46.11125 25.46046875 46.956875 24.88671875 47.828125 C20.67450268 52.26802843 14.99658104 54.5667674 9.57421875 57.265625 C10.1053125 57.54535156 10.63640625 57.82507813 11.18359375 58.11328125 C15.2192628 60.40359708 18.79585133 62.61204803 20.9609375 66.89453125 C22.36750665 72.33266804 23.10674032 81.20058186 20.57421875 86.265625 C10.67421875 86.265625 0.77421875 86.265625 -9.42578125 86.265625 C-8.43578125 82.635625 -7.44578125 79.005625 -6.42578125 75.265625 C-5.64318114 70.86262602 -5.64318114 70.86262602 -5.42578125 67.265625 C-6.4922324 65.96928879 -6.4922324 65.96928879 -8.98828125 66.203125 C-9.79265625 66.22375 -10.59703125 66.244375 -11.42578125 66.265625 C-15.39081387 74.40537947 -18.59018644 82.78701613 -21.74609375 91.26635742 C-22.07867188 92.15556885 -22.41125 93.04478027 -22.75390625 93.9609375 C-23.05200195 94.76547363 -23.35009766 95.57000977 -23.65722656 96.39892578 C-24.42578125 98.265625 -24.42578125 98.265625 -25.42578125 99.265625 C-26.76845538 99.35194374 -28.11552447 99.37268973 -29.4609375 99.36328125 C-30.26982422 99.36005859 -31.07871094 99.35683594 -31.91210938 99.35351562 C-32.76224609 99.34513672 -33.61238281 99.33675781 -34.48828125 99.328125 C-35.34228516 99.32361328 -36.19628906 99.31910156 -37.07617188 99.31445312 C-39.19273788 99.30262873 -41.3092681 99.28469269 -43.42578125 99.265625 C-41.93529388 91.6626288 -39.57460263 84.54166907 -36.98828125 77.24609375 C-36.54384208 75.98097024 -36.09984174 74.7156925 -35.65625 73.45027161 C-34.48760824 70.12055036 -33.31271225 66.79306922 -32.13653564 63.46600342 C-30.74770795 59.53280044 -29.36744123 55.59658451 -27.98577881 51.66086006 C-26.84498541 48.41395216 -25.69955459 45.1688122 -24.54443359 41.92697144 C-22.44189517 36.02140255 -20.36038098 30.11324572 -18.38925171 24.16227627 C-17.73054669 22.17859202 -17.06223938 20.19841724 -16.390625 18.21907043 C-15.55776526 15.75593988 -14.74303688 13.2865814 -13.94921875 10.81059265 C-13.57410156 9.71463272 -13.19898438 8.61867279 -12.8125 7.48950195 C-12.49498779 6.52542923 -12.17747559 5.56135651 -11.8503418 4.56806946 C-10.42578125 2.265625 -10.42578125 2.265625 -7.41926575 0.95530701 C-4.83766818 0.36052143 -2.63593748 0.00840714 0 0 Z " fill="#24B3BA" transform="translate(786.42578125,677.734375)"/>
<path d="M0 0 C5.6050325 -0.07427668 11.20977711 -0.12866208 16.81518555 -0.16479492 C18.72116081 -0.17986128 20.62710152 -0.20031824 22.53295898 -0.22631836 C25.27596576 -0.26279642 28.01851328 -0.27974792 30.76171875 -0.29296875 C32.03543587 -0.31619453 32.03543587 -0.31619453 33.33488464 -0.33988953 C38.06589252 -0.34122879 41.14667875 -0.05989397 45 3 C46.8335601 5.41696558 47.05996384 6.51880868 46.68359375 9.5390625 C45.81882979 13.91723888 44.77359774 18.23461508 43.6875 22.5625 C43.48705078 23.38041016 43.28660156 24.19832031 43.08007812 25.04101562 C41.88052119 29.84295717 40.53259089 34.57019197 39.05078125 39.29296875 C36.58376954 47.19519739 34.6115581 55.20733104 32.64453125 63.24609375 C28.67639057 78.99296877 28.67639057 78.99296877 24.47436523 83.71411133 C20.57018195 85.74305394 16.71552702 85.44767267 12.37890625 85.43359375 C11.44199448 85.4388356 10.5050827 85.44407745 9.53977966 85.44947815 C7.56030263 85.45589529 5.58078745 85.45456534 3.60131836 85.44604492 C0.57661836 85.4375397 -2.4461899 85.46629281 -5.47070312 85.49804688 C-7.39583277 85.49965915 -9.32096575 85.49908085 -11.24609375 85.49609375 C-12.14831161 85.50732773 -13.05052948 85.51856171 -13.98008728 85.53013611 C-18.17773739 85.48367815 -20.41578331 85.36543384 -24.04711914 83.09399414 C-26.57797838 80.38025746 -26.97114124 79.54421743 -27.17016602 75.79101562 C-27.00012673 72.00282328 -26.3577122 68.96888744 -25.27734375 65.34375 C-24.90689941 64.08473877 -24.53645508 62.82572754 -24.15478516 61.52856445 C-23.74922242 60.18564953 -23.34345642 58.84279597 -22.9375 57.5 C-22.52574155 56.11245702 -22.11477917 54.72467758 -21.70458984 53.33666992 C-18.9486993 44.03989735 -16.11169656 34.7673029 -13.25927734 25.49975586 C-11.28383545 19.04684223 -9.48704372 12.58547933 -8 6 C-6.68 5.67 -5.36 5.34 -4 5 C-1.95548952 7.97191729 0.03522191 10.97479261 2 14 C2.51046875 14.77730469 3.0209375 15.55460938 3.546875 16.35546875 C4.00578125 17.10441406 4.4646875 17.85335937 4.9375 18.625 C5.56978516 19.63433594 5.56978516 19.63433594 6.21484375 20.6640625 C8.54432011 27.59454442 4.11153295 36.64131663 1.99609375 43.34960938 C-0.04553455 50.10161207 -0.04553455 50.10161207 1 57 C2.93731528 59.36410488 2.93731528 59.36410488 6.4375 59.3125 C9.85320953 59.32545012 9.85320953 59.32545012 11.60864258 57.80932617 C14.56047759 53.97074936 15.37875744 48.90539403 16.6875 44.3125 C17.00783203 43.24837891 17.32816406 42.18425781 17.65820312 41.08789062 C20.13268096 32.65728548 20.13268096 32.65728548 20 24 C18.18210435 21.73916531 16.78074492 20.308381 14.5625 18.5625 C13.46490364 17.62645462 12.36856392 16.68893388 11.2734375 15.75 C10.72397461 15.29109375 10.17451172 14.8321875 9.60839844 14.359375 C7.22086095 12.34149268 4.9433664 10.22585453 2.6875 8.0625 C1.94886719 7.37285156 1.21023438 6.68320312 0.44921875 5.97265625 C-0.02902344 5.32167969 -0.50726563 4.67070313 -1 4 C-0.59057617 1.87670898 -0.59057617 1.87670898 0 0 Z " fill="#24B3B9" transform="translate(493,678)"/>
<path d="M0 0 C5.72911572 -0.09913284 11.45772839 -0.1715934 17.1875 -0.21972656 C19.13517966 -0.23979906 21.08279937 -0.26706332 23.03027344 -0.30175781 C25.83543721 -0.35046852 28.63980187 -0.37301241 31.4453125 -0.390625 C32.74409836 -0.42159271 32.74409836 -0.42159271 34.06912231 -0.45318604 C40.55216259 -0.45557351 44.00714271 1.30642844 48.875 5.6875 C50.94917972 9.95109165 50.79627529 14.61453393 49.30566406 19.08007812 C48.5638168 21.06358023 47.78434393 23.03291521 47 25 C46.22285645 25.01981934 45.44571289 25.03963867 44.64501953 25.06005859 C41.13799309 25.15507009 37.63158206 25.26484559 34.125 25.375 C32.29001953 25.42140625 32.29001953 25.42140625 30.41796875 25.46875 C29.25136719 25.50742187 28.08476563 25.54609375 26.8828125 25.5859375 C25.80402832 25.6173584 24.72524414 25.6487793 23.61376953 25.68115234 C20.84238346 25.74676322 20.84238346 25.74676322 19 28 C19.495 30.475 19.495 30.475 20 33 C28.25 33.33 36.5 33.66 45 34 C42.69812031 44.61422302 39.81203563 55.00883965 36.75439453 65.42724609 C36.23330648 67.20434185 35.71908572 68.98346057 35.21044922 70.76416016 C34.95279785 71.65280762 34.69514648 72.54145508 34.4296875 73.45703125 C34.20007324 74.25729736 33.97045898 75.05756348 33.73388672 75.88208008 C32.69462177 78.88128947 31.30336459 80.83212744 29 83 C25.52355417 84.66723741 22.77382632 85.24689316 18.93432617 85.22705078 C17.95368698 85.22689972 16.97304779 85.22674866 15.96269226 85.22659302 C14.9166835 85.21627045 13.87067474 85.20594788 12.79296875 85.1953125 C11.17217155 85.19106766 11.17217155 85.19106766 9.51863098 85.18673706 C6.07480699 85.17556132 2.63124511 85.15046118 -0.8125 85.125 C-3.15038686 85.11496685 -5.48827781 85.10584158 -7.82617188 85.09765625 C-13.55087035 85.0756305 -19.27541645 85.04217868 -25 85 C-19.40781656 64.80159209 -19.40781656 64.80159209 -17.25 57.4375 C-17.04246094 56.71626953 -16.83492187 55.99503906 -16.62109375 55.25195312 C-15.11833486 50.11833486 -15.11833486 50.11833486 -14 49 C-12.58429877 48.91348389 -11.164405 48.89295096 -9.74609375 48.90234375 C-8.46508789 48.90717773 -8.46508789 48.90717773 -7.15820312 48.91210938 C-6.26037109 48.92048828 -5.36253906 48.92886719 -4.4375 48.9375 C-3.53580078 48.94201172 -2.63410156 48.94652344 -1.70507812 48.95117188 C0.53001314 48.96299775 2.76497437 48.9794778 5 49 C6.64643834 53.97875068 5.14800196 57.67271472 3.5625 62.4375 C1.9150798 67.440938 0.65238609 71.65013721 1 77 C2.98 77 4.96 77 7 77 C8.43619996 72.98398767 9.85989616 68.96382136 11.27246094 64.93945312 C11.75412098 63.57270235 12.23910267 62.20711723 12.72753906 60.84277344 C13.43142611 58.87476271 14.12302717 56.9027873 14.8125 54.9296875 C15.23144531 53.74616699 15.65039062 52.56264648 16.08203125 51.34326172 C16.98506685 48.05438686 17.18054513 45.38973478 17 42 C14.3178719 40.65893595 12.11601968 40.78549581 9.1171875 40.68359375 C7.36728516 40.62075195 7.36728516 40.62075195 5.58203125 40.55664062 C3.74705078 40.49766602 3.74705078 40.49766602 1.875 40.4375 C0.64394531 40.39431641 -0.58710937 40.35113281 -1.85546875 40.30664062 C-4.90352853 40.20031296 -7.9516719 40.09828219 -11 40 C-10.47264283 35.74981449 -9.77084532 31.89929469 -8.3125 27.875 C-5.13557445 18.70763551 -2.62171093 9.33789975 0 0 Z " fill="#F8CA04" transform="translate(838,679)"/>
<path d="M0 0 C0.88602402 0.00222061 1.77204803 0.00444122 2.68492126 0.00672913 C3.68588333 0.00680466 4.6868454 0.00688019 5.71813965 0.00695801 C6.80666733 0.01211929 7.89519501 0.01728058 9.01670837 0.02259827 C10.67928932 0.02472069 10.67928932 0.02472069 12.37545776 0.02688599 C15.93168281 0.03250418 19.48784596 0.04505977 23.04405212 0.05775452 C25.44834809 0.06276717 27.85264504 0.06733048 30.25694275 0.07142639 C36.16516716 0.08247952 42.07335522 0.09923535 47.98155212 0.12025452 C46.1863188 6.19798924 44.32196815 12.24115269 42.29405212 18.24525452 C42.06911072 18.91556702 41.84416931 19.58587952 41.6124115 20.27650452 C41.07021245 21.89156551 40.52609945 23.50598378 39.98155212 25.12025452 C38.44446594 25.15783875 38.44446594 25.15783875 36.87632751 25.19618225 C33.08745536 25.29009935 29.29877331 25.39035769 25.51011658 25.49256897 C23.86790909 25.53597748 22.22565473 25.57764809 20.58335876 25.61756897 C18.22766467 25.67512892 15.87220785 25.73886343 13.51670837 25.80384827 C12.77816116 25.82056076 12.03961395 25.83727325 11.27868652 25.85449219 C7.83854585 25.65573465 7.83854585 25.65573465 4.98155212 27.12025452 C4.81488546 29.62025452 4.81488546 29.62025452 4.98155212 32.12025452 C6.86786755 34.00656995 10.12355906 33.36290744 12.64170837 33.43666077 C13.30617477 33.45744186 13.97064117 33.47822296 14.65524292 33.49963379 C16.78473756 33.5651911 18.91435881 33.62404237 21.04405212 33.68275452 C22.4848206 33.72593391 23.92557612 33.769548 25.36631775 33.81361389 C28.90459253 33.92087845 32.44301082 34.02212823 35.98155212 34.12025452 C34.63892296 41.05717187 32.68141269 46.37060311 29.98155212 53.12025452 C18.76155212 53.45025452 7.54155212 53.78025452 -4.01844788 54.12025452 C-4.01844788 56.10025452 -4.01844788 58.08025452 -4.01844788 60.12025452 C-2.13213245 62.00656995 1.12355906 61.36290744 3.64170837 61.43666077 C4.30617477 61.45744186 4.97064117 61.47822296 5.65524292 61.49963379 C7.78473756 61.5651911 9.91435881 61.62404237 12.04405212 61.68275452 C13.4848206 61.72593391 14.92557612 61.769548 16.36631775 61.81361389 C19.90459253 61.92087845 23.44301082 62.02212823 26.98155212 62.12025452 C26.56980081 63.70487321 26.15173823 65.28785154 25.73155212 66.87025452 C25.49952087 67.75197327 25.26748962 68.63369202 25.02842712 69.54212952 C23.49567832 74.78092768 21.7076554 79.9419447 19.98155212 85.12025452 C3.48155212 85.12025452 -13.01844788 85.12025452 -30.01844788 85.12025452 C-26.6433763 72.74499208 -26.6433763 72.74499208 -24.90541077 67.46229553 C-24.51813309 66.2805928 -24.13085541 65.09889008 -23.73184204 63.88137817 C-23.32239853 62.64149643 -22.91295502 61.40161469 -22.49110413 60.12416077 C-22.05633565 58.80107167 -21.62180588 57.47790411 -21.1875 56.15466309 C-20.05224404 52.69800567 -18.91366087 49.24245334 -17.77436829 45.78712463 C-16.62506756 42.2992635 -15.47919495 38.81027659 -14.332901 35.32142639 C-10.17535912 22.67296855 -10.17535912 22.67296855 -8.12785339 16.48136902 C-7.37227269 14.19222116 -6.62137816 11.90152243 -5.87461853 9.60948181 C-5.51659149 8.51725311 -5.15856445 7.42502441 -4.78968811 6.29969788 C-4.4720903 5.32504074 -4.15449249 4.35038361 -3.82727051 3.34619141 C-2.66917218 0.15902319 -2.66917218 0.15902319 0 0 Z " fill="#E21F50" transform="translate(721.0184478759766,678.8797454833984)"/>
<path d="M0 0 C7.59 0 15.18 0 23 0 C20.75576923 11.22115385 20.75576923 11.22115385 19.59765625 16.35546875 C19.34693359 17.47373047 19.09621094 18.59199219 18.83789062 19.74414062 C18.32533792 22.02028776 17.81232513 24.29633134 17.29882812 26.57226562 C15.40479149 35.02519127 13.66792782 43.50002604 12 52 C12.62660522 50.48986328 12.62660522 50.48986328 13.26586914 48.94921875 C14.85043668 45.13152372 16.43703174 41.31467384 18.02416992 37.49804688 C18.704391 35.86154981 19.38409773 34.22483883 20.06323242 32.58789062 C24.59264996 21.67169262 29.23160143 10.81415749 34 0 C42.91 0 51.82 0 61 0 C58.75011907 6.7496428 58.75011907 6.7496428 57.31445312 9.75 C56.83028427 10.76858849 56.83028427 10.76858849 56.33633423 11.80775452 C55.98815643 12.53119553 55.63997864 13.25463654 55.28125 14 C54.91075531 14.77721909 54.54026062 15.55443817 54.15853882 16.35520935 C52.94224957 18.90502644 51.72116141 21.45251319 50.5 24 C49.2208421 26.67757717 47.94279822 29.35568436 46.6647644 32.03379822 C45.78378106 33.87959252 44.90236703 35.72518132 44.02053833 37.5705719 C40.92126371 44.05864795 37.84154946 50.55572862 34.7734375 57.05859375 C34.3581781 57.93818756 33.9429187 58.81778137 33.51507568 59.72402954 C31.90376027 63.13730125 30.29253631 66.55061005 28.68481445 69.96557617 C27.58083887 72.30998421 26.47428467 74.65315859 25.3671875 76.99609375 C25.03890961 77.6952037 24.71063171 78.39431366 24.37240601 79.11460876 C22.11375184 83.88624816 22.11375184 83.88624816 21 85 C18.78144736 85.08783542 16.56011504 85.10694609 14.33984375 85.09765625 C13.34314415 85.09553383 13.34314415 85.09553383 12.3263092 85.09336853 C10.19666101 85.08775518 8.06711661 85.07520054 5.9375 85.0625 C4.49674631 85.05748671 3.05599097 85.05292351 1.61523438 85.04882812 C-1.92321389 85.03863087 -5.4615923 85.01967138 -9 85 C-8.42880156 74.58141325 -7.58269723 64.23816702 -6.40625 53.8671875 C-6.25284237 52.49198594 -6.09973212 51.11675117 -5.94689941 49.7414856 C-5.62989435 46.89607025 -5.31038515 44.05095253 -4.98876953 41.20605469 C-4.57814058 37.57323604 -4.17243302 33.93988875 -3.76837921 30.30633354 C-3.45403803 27.48197165 -3.13793111 24.65780975 -2.82121277 21.83371353 C-2.5985436 19.84744765 -2.37671615 17.86108747 -2.15490723 15.87472534 C-1.94964417 14.06090866 -1.94964417 14.06090866 -1.74023438 12.21044922 C-1.62111694 11.15284393 -1.50199951 10.09523865 -1.37927246 9.00558472 C-0.99906793 5.9926137 -0.49925755 2.99554532 0 0 Z " fill="#24B4BA" transform="translate(651,678)"/>
<path d="M0 0 C5.88986463 -0.07425639 11.77945566 -0.12865268 17.66967773 -0.16479492 C19.67265572 -0.17986465 21.6756008 -0.2003241 23.6784668 -0.22631836 C26.56046681 -0.26278127 29.44202984 -0.27974461 32.32421875 -0.29296875 C33.21711105 -0.30845261 34.11000336 -0.32393646 35.029953 -0.33988953 C39.87057394 -0.34119453 43.06021977 -0.13325603 47 3 C49.42638895 5.42638895 49.30435716 6.10327233 49.33203125 9.4375 C49.20987927 15.35178039 47.61882076 20.45085302 45.6875 26 C45.06563577 27.8539084 44.44453735 29.70807386 43.82421875 31.5625 C43.51798584 32.46097656 43.21175293 33.35945312 42.89624023 34.28515625 C41.7365685 37.79797285 40.71461074 41.34471655 39.71582031 44.90625 C38.46040924 48.57828457 36.48884564 51.07444648 33.20996094 53.11279297 C30.52451374 54.19088788 28.46819304 54.22742437 25.578125 54.1953125 C24.04091797 54.18564453 24.04091797 54.18564453 22.47265625 54.17578125 C21.40917969 54.15902344 20.34570312 54.14226563 19.25 54.125 C18.17105469 54.11597656 17.09210938 54.10695313 15.98046875 54.09765625 C13.32008722 54.07411305 10.66015664 54.04122799 8 54 C7.82984375 54.81082031 7.6596875 55.62164063 7.484375 56.45703125 C6.07272579 62.90706675 4.39180269 69.02258459 2.03515625 75.1875 C0.90345707 78.26230533 -0.05653266 81.36250861 -1 84.5 C-2.78620045 90.41856101 -4.82076127 96.21574401 -7 102 C-10.05526632 100.0763138 -13.03493653 98.05989431 -16 96 C-17.01707031 95.30003906 -18.03414063 94.60007812 -19.08203125 93.87890625 C-20.08621094 93.13511719 -21.09039062 92.39132812 -22.125 91.625 C-23.07632812 90.93664062 -24.02765625 90.24828125 -25.0078125 89.5390625 C-27 87 -27 87 -27.0078125 83.43359375 C-25.94166589 78.01832601 -24.33589311 72.71907553 -22.75 67.4375 C-22.43643555 66.37772949 -22.12287109 65.31795898 -21.79980469 64.22607422 C-19.71685442 57.23999944 -17.52114099 50.30414753 -15.140625 43.4140625 C-13.6577817 38.97568905 -12.3446525 34.48217501 -11 30 C3.19 29.67 17.38 29.34 32 29 C32 27.02 32 25.04 32 23 C29.91795642 20.91795642 25.4661444 21.74178708 22.58984375 21.68359375 C21.74780899 21.66281265 20.90577423 21.64203156 20.03822327 21.62062073 C17.33806821 21.55503188 14.63781283 21.49619724 11.9375 21.4375 C10.11131759 21.39432363 8.28514546 21.35070964 6.45898438 21.30664062 C1.97276008 21.19934106 -2.5135655 21.09810034 -7 21 C-5.91854311 15.55523931 -4.60729129 10.54827217 -2.375 5.4375 C-1.92898438 4.40496094 -1.48296875 3.37242187 -1.0234375 2.30859375 C-0.51683594 1.16583984 -0.51683594 1.16583984 0 0 Z " fill="#F8CA04" transform="translate(426,678)"/>
<path d="M0 0 C5.58666964 -0.12393636 11.17253283 -0.21449755 16.76025391 -0.2746582 C18.65948431 -0.29974604 20.5586187 -0.33382468 22.45751953 -0.37719727 C25.19327521 -0.4381033 27.9277507 -0.46626653 30.6640625 -0.48828125 C31.50804596 -0.51408768 32.35202942 -0.5398941 33.22158813 -0.56648254 C37.41452102 -0.56846096 40.18445088 -0.30534811 43.55224609 2.32519531 C46 5 46 5 46.5 8.28515625 C45.94037916 12.44296424 45.09541895 16.39259152 44 20.4375 C43.80921875 21.16904297 43.6184375 21.90058594 43.421875 22.65429688 C42.95549597 24.43819666 42.47881722 26.21939845 42 28 C42.92941406 27.96519531 43.85882812 27.93039062 44.81640625 27.89453125 C57.28262047 27.62154846 57.28262047 27.62154846 63 31 C65 33 65 33 65.375 35.75 C64.68490292 41.73084139 60.86844281 45.69602095 56.3515625 49.3671875 C46.16688369 56.43894123 34.70325178 61.10633258 23 65 C22.31679688 65.22816406 21.63359375 65.45632813 20.9296875 65.69140625 C6.01687065 70.57856533 -16.07902046 77.70616022 -31.375 71.625 C-34 70 -34 70 -35 68 C-35.62161663 64.73651268 -35.50828632 62.76389852 -33.6484375 59.96875 C-30.18339033 55.8778573 -26.68365209 52.6141314 -22 50 C-21.34 50 -20.68 50 -20 50 C-19.84325806 49.11622681 -19.84325806 49.11622681 -19.68334961 48.21459961 C-18.42509574 41.50107103 -16.61354532 35.07271816 -14.5625 28.5625 C-12.22497141 21.07738158 -10.01264997 13.57959353 -8 6 C-6.68 5.67 -5.36 5.34 -4 5 C-2.30769568 7.67213052 -0.65119371 10.36480649 1 13.0625 C1.47695313 13.81466797 1.95390625 14.56683594 2.4453125 15.34179688 C5.86495915 20.98421385 7.01427612 24.79186026 5.41796875 31.41479492 C4.66463812 34.14939517 3.84592273 36.85516623 3 39.5625 C0.3247457 47.61283756 0.3247457 47.61283756 0 56 C1.29209912 57.79252059 1.29209912 57.79252059 3 59 C3.66 59.66 4.32 60.32 5 61 C-5.10867435 64.48897235 -13.39029322 65.5349432 -24 65 C-23.73958333 62.98177083 -23.47916667 60.96354167 -23.21875 58.9453125 C-22.9627515 56.99501656 -22.9627515 56.99501656 -23 55 C-24.34786992 56.04399746 -25.67792729 57.11102066 -27 58.1875 C-27.7425 58.77917969 -28.485 59.37085938 -29.25 59.98046875 C-31.25962121 61.90280499 -31.25962121 61.90280499 -31.25 64.73828125 C-31.1675 65.48464844 -31.085 66.23101563 -31 67 C-19.60808199 72.695959 -0.31357703 66.58718055 11 63 C26.06313101 57.85806894 45.27686192 51.19484216 57 40 C58.27386949 37.40200941 58.27386949 37.40200941 59 35 C54.84373632 33.99073521 50.95634906 33.89760421 46.6875 33.9375 C45.43324219 33.94652344 44.17898438 33.95554687 42.88671875 33.96484375 C41.45779297 33.98224609 41.45779297 33.98224609 40 34 C39.81050781 35.50240234 39.81050781 35.50240234 39.6171875 37.03515625 C38.61328081 43.00165839 37.80518013 47.57449882 32.8984375 51.44921875 C29.39696406 53.33153035 25.7439915 54.67809909 22 56 C21.14535156 56.36609375 20.29070313 56.7321875 19.41015625 57.109375 C14.53624079 59.17874693 14.53624079 59.17874693 11 58 C11.42796875 57.0615625 11.8559375 56.123125 12.296875 55.15625 C14.33641149 50.38613407 15.8003029 45.47541674 17.25 40.5 C17.53101563 39.58863281 17.81203125 38.67726563 18.1015625 37.73828125 C19.62160562 32.52347987 20.60982973 28.36609911 19 23 C17.37266334 21.07580699 17.37266334 21.07580699 15.125 19.75 C11.08235151 16.86798285 7.44148426 13.81587948 3.875 10.375 C2.92367187 9.47523438 1.97234375 8.57546875 0.9921875 7.6484375 C-1 5 -1 5 -0.62451172 2.33447266 C-0.41842285 1.56409668 -0.21233398 0.7937207 0 0 Z " fill="#E12050" transform="translate(913,679)"/>
<path d="M0 0 C3.93736123 -0.08696177 7.87447628 -0.14037835 11.8125 -0.1875 C13.49182617 -0.22520508 13.49182617 -0.22520508 15.20507812 -0.26367188 C16.27822266 -0.27333984 17.35136719 -0.28300781 18.45703125 -0.29296875 C19.9416687 -0.31653442 19.9416687 -0.31653442 21.45629883 -0.34057617 C24 0 24 0 25.90893555 1.08081055 C27.69269647 4.21845759 26.80517025 6.58063768 26 10 C24.74755859 12.9206543 24.74755859 12.9206543 23.1484375 15.82421875 C22.55135986 16.9222583 21.95428223 18.02029785 21.33911133 19.15161133 C20.68454493 20.33031719 20.02983769 21.50894484 19.375 22.6875 C18.70289847 23.91564657 18.03193737 25.14441787 17.36206055 26.3737793 C15.96197271 28.94134278 14.55695503 31.5061198 13.14892578 34.06933594 C11.00944532 37.97251927 8.90407831 41.89336701 6.80859375 45.8203125 C6.47120178 46.45248184 6.13380981 47.08465118 5.78619385 47.73597717 C5.11937187 48.9859808 4.45270265 50.23606593 3.78619385 51.48623657 C-3.7161884 65.55772973 -3.7161884 65.55772973 -6.40234375 70.1171875 C-8.05958489 73.10751504 -8.57485308 74.64669037 -8 78 C-6.19826141 80.16232725 -6.19826141 80.16232725 -3.82421875 80.47265625 C0.46256181 79.75522824 2.9499675 77.21787711 6.1875 74.4375 C7.51769687 73.33372308 8.84973214 72.23215794 10.18359375 71.1328125 C10.83183105 70.5955957 11.48006836 70.05837891 12.14794922 69.50488281 C19.51073929 63.52225191 24.54730302 59.84905783 34.1875 59.9375 C35.45980469 59.94652344 36.73210938 59.95554687 38.04296875 59.96484375 C39.50669922 59.98224609 39.50669922 59.98224609 41 60 C40.4247558 62.89763966 39.83993738 65.79284455 39.25 68.6875 C39.09273437 69.48478516 38.93546875 70.28207031 38.7734375 71.10351562 C37.29217912 78.31040734 35.19569002 84.86400744 33 92 C13.86 92 -5.28 92 -25 92 C-23.4793328 85.1569976 -21.88822672 78.35992774 -20.1875 71.5625 C-19.92324219 70.50627441 -19.65898438 69.45004883 -19.38671875 68.36181641 C-17.46336142 60.72733614 -15.42253536 53.13440177 -13.28125 45.55859375 C-12.07943397 41.30623063 -10.92203122 37.04248383 -9.76831055 32.77685547 C-7.64092653 24.91493104 -5.47742356 17.06630621 -3.1875 9.25 C-2.98060547 8.54093506 -2.77371094 7.83187012 -2.56054688 7.10131836 C-1.12565402 2.25130804 -1.12565402 2.25130804 0 0 Z " fill="#E31F50" transform="translate(552,671)"/>
<path d="M0 0 C1.11375 0.1546875 1.11375 0.1546875 2.25 0.3125 C-0.80301789 5.94826651 -4.34326707 11.00325311 -8.1875 16.125 C-9.42907112 17.79506336 -10.66993791 19.46565054 -11.91015625 21.13671875 C-12.54195801 21.98669434 -13.17375977 22.83666992 -13.82470703 23.71240234 C-16.95134292 27.93490706 -20.04257335 32.1826588 -23.125 36.4375 C-23.69017334 37.21327393 -24.25534668 37.98904785 -24.83764648 38.78833008 C-25.35270752 39.50013428 -25.86776855 40.21193848 -26.3984375 40.9453125 C-26.85395996 41.57324707 -27.30948242 42.20118164 -27.77880859 42.84814453 C-28.84211845 44.15853846 -28.84211845 44.15853846 -28.75 45.3125 C-23.43887516 40.79889231 -18.33256971 36.07940943 -13.25 31.3125 C-8.76072824 27.10397942 -4.26553199 22.92145166 0.40234375 18.91015625 C3.46624725 16.26081898 6.46012188 13.53250989 9.46484375 10.81640625 C11.25 9.3125 11.25 9.3125 12.25 9.3125 C12.42390259 10.25101807 12.42390259 10.25101807 12.60131836 11.20849609 C13.12693387 14.03541967 13.65715861 16.86145938 14.1875 19.6875 C14.46110352 21.16476562 14.46110352 21.16476562 14.74023438 22.671875 C14.91748047 23.61289062 15.09472656 24.55390625 15.27734375 25.5234375 C15.43968506 26.39274902 15.60202637 27.26206055 15.76928711 28.15771484 C16.1665899 30.34712366 16.1665899 30.34712366 17.25 32.3125 C17.54769287 31.71187744 17.84538574 31.11125488 18.15209961 30.49243164 C19.49516208 27.78558771 20.84128848 25.08027908 22.1875 22.375 C22.65607422 21.42947266 23.12464844 20.48394531 23.60742188 19.50976562 C24.05537109 18.61064453 24.50332031 17.71152344 24.96484375 16.78515625 C25.37855225 15.95250244 25.79226074 15.11984863 26.21850586 14.26196289 C27.25 12.3125 27.25 12.3125 28.25 11.3125 C29.91617115 11.27186168 31.58388095 11.269779 33.25 11.3125 C32.70167149 20.07691212 30.76094415 28.34252739 28.72705078 36.85440063 C27.6973819 41.16530397 26.68801483 45.48093755 25.6796875 49.796875 C25.37282013 51.10861443 25.37282013 51.10861443 25.05975342 52.44685364 C22.66850419 62.72397232 20.50457205 73.04798314 18.37060547 83.38110352 C17.97059326 85.30587524 17.97059326 85.30587524 17.5625 87.26953125 C17.21638672 88.95526245 17.21638672 88.95526245 16.86328125 90.67504883 C16.25 93.3125 16.25 93.3125 15.25 95.3125 C6.67 95.3125 -1.91 95.3125 -10.75 95.3125 C-8.24783098 82.32046856 -5.40221657 69.47595495 -2.27734375 56.62109375 C-0.77121477 50.42283065 0.69370123 44.21595574 2.125 38 C2.34019287 37.08105957 2.55538574 36.16211914 2.77709961 35.21533203 C3.06919312 33.93891846 3.06919312 33.93891846 3.3671875 32.63671875 C3.53847168 31.89510498 3.70975586 31.15349121 3.88623047 30.3894043 C4.36501571 28.00724986 4.36501571 28.00724986 4.25 24.3125 C-0.98884317 28.86356209 -6.16494887 33.47926511 -11.31640625 38.12890625 C-13.42511146 40.02098685 -15.54919801 41.89155758 -17.6875 43.75 C-20.91559512 46.56072525 -24.08738443 49.428299 -27.25 52.3125 C-31.03662998 55.76578153 -34.8547632 59.17349051 -38.72265625 62.53515625 C-41.08489173 64.60609487 -43.41795853 66.70762848 -45.75 68.8125 C-46.58660156 69.5653125 -47.42320312 70.318125 -48.28515625 71.09375 C-49.87889862 72.52837071 -51.47021657 73.96569134 -53.05859375 75.40625 C-53.76113281 76.0353125 -54.46367188 76.664375 -55.1875 77.3125 C-55.80496094 77.869375 -56.42242188 78.42625 -57.05859375 79 C-58.75 80.3125 -58.75 80.3125 -61.75 81.3125 C-60.44302984 78.55928614 -58.99417133 76.11616726 -57.203125 73.65234375 C-56.69515381 72.95093262 -56.18718262 72.24952148 -55.66381836 71.52685547 C-55.1147583 70.77549316 -54.56569824 70.02413086 -54 69.25 C-53.42580322 68.45996582 -52.85160645 67.66993164 -52.26000977 66.85595703 C-50.42753287 64.33837944 -48.58974664 61.82476925 -46.75 59.3125 C-46.16009277 58.5066748 -45.57018555 57.70084961 -44.96240234 56.87060547 C-38.46448022 48.00456773 -31.91728762 39.17687413 -25.30639648 30.39477539 C-20.64623027 24.19599981 -16.05155317 17.94948871 -11.46875 11.69335938 C-9.90327927 9.56076789 -8.32840576 7.4355254 -6.75 5.3125 C-5.64398437 3.81203125 -5.64398437 3.81203125 -4.515625 2.28125 C-2.75 0.3125 -2.75 0.3125 0 0 Z " fill="#F6C805" transform="translate(607.75,667.6875)"/>
<path d="M0 0 C1.03125 0.37125 2.0625 0.7425 3.125 1.125 C3.74375 1.41375 4.3625 1.7025 5 2 C4.0374017 8.13656413 4.0374017 8.13656413 1.49462891 10.25292969 C0.86991699 10.61805664 0.24520508 10.98318359 -0.3984375 11.359375 C-1.1193457 11.78371826 -1.84025391 12.20806152 -2.58300781 12.64526367 C-7.07382109 15.1623872 -11.58699327 17.63142496 -16.125 20.0625 C-18.2736034 21.21974411 -20.42203734 22.37730291 -22.5703125 23.53515625 C-23.64829102 24.11539551 -24.72626953 24.69563477 -25.83691406 25.29345703 C-30.56714111 27.84550142 -35.28388886 30.42199099 -40 33 C-48.65279574 37.72587771 -57.3147844 42.43455624 -65.99291992 47.11376953 C-71.11703136 49.8799606 -76.22188029 52.67497002 -81.30078125 55.5234375 C-82.31076172 56.08611328 -83.32074219 56.64878906 -84.36132812 57.22851562 C-86.29048509 58.30480902 -88.2151919 59.38912833 -90.13476562 60.48242188 C-90.99392578 60.96001953 -91.85308594 61.43761719 -92.73828125 61.9296875 C-93.86810425 62.56753174 -93.86810425 62.56753174 -95.02075195 63.21826172 C-97 64 -97 64 -100 63 C-100.56203125 62.07960938 -101.1240625 61.15921875 -101.703125 60.2109375 C-104.55993147 56.21723866 -107.41802027 54.72957238 -111.75 52.625 C-112.44738281 52.27050781 -113.14476562 51.91601562 -113.86328125 51.55078125 C-115.56848619 50.6864993 -117.28331979 49.84125871 -119 49 C-119 48.34 -119 47.68 -119 47 C-118.41025391 46.80591553 -117.82050781 46.61183105 -117.21289062 46.41186523 C-100.07720443 40.69287906 -83.96898128 33.54813719 -67.7204895 25.73239136 C-60.83504947 22.42514764 -53.87502841 19.2874076 -46.90551758 16.16186523 C-41.38852339 13.65499495 -35.99910451 10.97995027 -30.6484375 8.140625 C-29.38463802 7.47821927 -28.12064106 6.81619017 -26.85644531 6.15454102 C-24.42368199 4.88071889 -22.0143323 3.57261928 -19.61230469 2.24194336 C-12.37917309 -1.55624037 -7.77497649 -2.92776459 0 0 Z " fill="#24B3BA" transform="translate(361,761)"/>
<path d="M0 0 C2.33086714 0.21600708 4.66440195 0.40571217 7 0.5625 C8.66681971 0.70657351 10.33355447 0.8516611 12 1 C11.71590786 4.12501355 11.44641278 6.38176536 9.58740234 8.95629883 C5.73010245 12.00304891 1.45899808 13.33082471 -3.1484375 14.94921875 C-4.1728746 15.31939117 -5.19731171 15.6895636 -6.25279236 16.07095337 C-9.62331936 17.2865802 -12.99913305 18.48679175 -16.375 19.6875 C-18.71555582 20.52954357 -21.05563918 21.37290149 -23.39526367 22.2175293 C-28.21152958 23.95579787 -33.0293425 25.68967397 -37.84814453 27.42089844 C-47.71000998 30.97026991 -57.54524635 34.59123721 -67.37554932 38.22695923 C-70.23624706 39.28431578 -73.09824492 40.33808706 -75.96044922 41.39135742 C-77.7405973 42.04856407 -79.52070911 42.70586895 -81.30078125 43.36328125 C-82.14090759 43.67164413 -82.98103394 43.98000702 -83.84661865 44.29771423 C-87.74113112 45.73856424 -91.59338291 47.22880973 -95.40380859 48.88037109 C-96.08597946 49.17187546 -96.76815033 49.46337982 -97.47099304 49.76371765 C-99.27465893 50.54351051 -101.06790324 51.34728978 -102.86010742 52.15307617 C-107.3722558 53.37013882 -110.08893416 51.96611078 -114.1171875 49.9296875 C-115.74479167 48.953125 -117.37239583 47.9765625 -119 47 C-119 46.01 -119 45.02 -119 44 C-99.72364236 35.2606051 -80.36161269 26.72066786 -60.92480469 18.34399414 C-58.95630435 17.49513031 -56.98787891 16.6460928 -55.01953125 15.796875 C-54.06392303 15.38465195 -53.10831482 14.97242889 -52.12374878 14.54771423 C-46.50642161 12.11490462 -40.93240269 9.60713374 -35.38671875 7.015625 C-22.91496679 1.23294158 -13.73548329 -2.89335412 0 0 Z " fill="#24B3B9" transform="translate(211,583)"/>
<path d="M0 0 C5.58666964 -0.12393636 11.17253283 -0.21449755 16.76025391 -0.2746582 C18.65948431 -0.29974604 20.5586187 -0.33382468 22.45751953 -0.37719727 C25.19327521 -0.4381033 27.9277507 -0.46626653 30.6640625 -0.48828125 C31.50804596 -0.51408768 32.35202942 -0.5398941 33.22158813 -0.56648254 C37.42546345 -0.56846613 40.18016404 -0.30616504 43.54711914 2.34423828 C46 5 46 5 46.58203125 7.98046875 C46.04298615 13.86226172 44.22418172 19.63265227 42.6875 25.3125 C42.37876953 26.48490234 42.07003906 27.65730469 41.75195312 28.86523438 C41.14044215 31.17095261 40.51597025 33.47327797 39.87768555 35.77172852 C39.32122674 37.81847534 38.80224023 39.87608379 38.33520508 41.94506836 C37.23245516 46.48118216 36.70324795 48.45044792 32.92578125 51.40234375 C31.73339844 51.90894531 30.54101562 52.41554688 29.3125 52.9375 C28.68690186 53.21271484 28.06130371 53.48792969 27.41674805 53.77148438 C25.62574984 54.54882815 23.81318973 55.27592755 22 56 C21.1440625 56.37253906 20.288125 56.74507812 19.40625 57.12890625 C14.50461618 59.16820539 14.50461618 59.16820539 11 58 C11.64195312 56.59234375 11.64195312 56.59234375 12.296875 55.15625 C14.33641149 50.38613407 15.8003029 45.47541674 17.25 40.5 C17.53101563 39.58863281 17.81203125 38.67726563 18.1015625 37.73828125 C19.62160562 32.52347987 20.60982973 28.36609911 19 23 C17.37266334 21.07580699 17.37266334 21.07580699 15.125 19.75 C11.08235151 16.86798285 7.44148426 13.81587948 3.875 10.375 C2.44800781 9.02535156 2.44800781 9.02535156 0.9921875 7.6484375 C-1 5 -1 5 -0.62451172 2.33447266 C-0.41842285 1.56409668 -0.21233398 0.7937207 0 0 Z " fill="#E11F50" transform="translate(913,679)"/>
<path d="M0 0 C0.63228516 0.30035156 1.26457031 0.60070312 1.91601562 0.91015625 C3.73828125 1.828125 3.73828125 1.828125 6.6875 3.75 C7.37182617 5.87011719 7.37182617 5.87011719 7.6875 7.75 C6.6044458 8.14791748 5.5213916 8.54583496 4.40551758 8.95581055 C0.32540334 10.45515357 -3.75423403 11.95579059 -7.83374023 13.45678711 C-9.58784541 14.10198815 -11.34207383 14.74685425 -13.09643555 15.39135742 C-15.6414516 16.32639472 -18.18608164 17.26247141 -20.73046875 18.19921875 C-21.56255356 18.50543152 -22.39463837 18.81164429 -23.25193787 19.12713623 C-28.00470355 20.88143634 -32.73512771 22.68169607 -37.453125 24.52734375 C-42.53325135 26.49315116 -47.6239148 28.18152988 -52.875 29.625 C-54.02452148 29.96144531 -54.02452148 29.96144531 -55.19726562 30.3046875 C-61.7303361 32.12416753 -61.7303361 32.12416753 -65.3125 30.75 C-67.14355469 29.25952148 -67.14355469 29.25952148 -68.984375 27.37109375 C-69.64824219 26.69755859 -70.31210937 26.02402344 -70.99609375 25.33007812 C-71.67800781 24.62302734 -72.35992187 23.91597656 -73.0625 23.1875 C-73.75988281 22.47658203 -74.45726562 21.76566406 -75.17578125 21.03320312 C-76.8949658 19.27869286 -78.60675872 17.51756648 -80.3125 15.75 C-77.52367401 12.96117401 -74.36028732 12.67985672 -70.625 11.875 C-69.06599938 11.52393737 -67.50741106 11.17103934 -65.94921875 10.81640625 C-65.16595215 10.63867676 -64.38268555 10.46094727 -63.57568359 10.27783203 C-58.46544672 9.08599469 -53.41257944 7.67149048 -48.34912109 6.29736328 C-46.11678666 5.69739999 -43.88117475 5.11103423 -41.64453125 4.52734375 C-40.84023682 4.3173877 -40.03594238 4.10743164 -39.20727539 3.89111328 C-37.57765203 3.46593783 -35.94793291 3.0411292 -34.31811523 2.61669922 C-28.26570974 1.02944586 -22.27309885 -0.7079397 -16.29296875 -2.55078125 C-9.92263926 -4.04526222 -5.72793231 -2.95130056 0 0 Z " fill="#FBFBFC" transform="translate(352.3125,632.25)"/>
<path d="M0 0 C2.86255826 1.76798204 5.04024619 4.05751299 7.34375 6.4921875 C7.99831177 7.1533255 8.65287354 7.8144635 9.32727051 8.49563599 C10.7012333 9.89037965 12.06564523 11.29458912 13.42089844 12.70751953 C15.50326444 14.8784032 17.6115558 17.02110423 19.7265625 19.16015625 C21.05886497 20.51929287 22.3896495 21.8799195 23.71875 23.2421875 C24.34986694 23.88807831 24.98098389 24.53396912 25.63122559 25.19943237 C30 29.76331517 30 29.76331517 30 32 C30.66 32 31.32 32 32 32 C35.14706265 34.96606276 35.95756376 36.60600485 36.42578125 40.953125 C36.40866275 42.38581206 36.37043416 43.81838242 36.3125 45.25 C36.29799805 46.34828125 36.29799805 46.34828125 36.28320312 47.46875 C36.16900721 52.83099279 36.16900721 52.83099279 35 54 C33.65984779 54.15582303 32.31241097 54.25044142 30.96484375 54.31640625 C30.15595703 54.35830078 29.34707031 54.40019531 28.51367188 54.44335938 C27.66353516 54.48267578 26.81339844 54.52199219 25.9375 54.5625 C25.08349609 54.60568359 24.22949219 54.64886719 23.34960938 54.69335938 C21.23327963 54.79976702 19.11666187 54.90041731 17 55 C16.8453125 53.14375 16.8453125 53.14375 16.6875 51.25 C15.07721985 43.9347273 9.14648726 39.07856407 4 34 C3.18144531 33.18015625 2.36289063 32.3603125 1.51953125 31.515625 C0.03710406 30.03574932 -1.45347732 28.56398489 -2.953125 27.1015625 C-4.96183518 25.03918449 -6.71290513 22.8793628 -8.5 20.625 C-12.0044638 16.48560982 -15.78884704 15.13440064 -21 14 C-19.02548747 11.64021673 -17.02511573 9.31569525 -15 7 C-14.44699219 6.33226562 -13.89398438 5.66453125 -13.32421875 4.9765625 C-12.48310547 4.02910156 -12.48310547 4.02910156 -11.625 3.0625 C-11.12226563 2.47597656 -10.61953125 1.88945313 -10.1015625 1.28515625 C-6.83316572 -0.71354736 -3.6601456 -0.7505098 0 0 Z " fill="#E0224F" transform="translate(223,657)"/>
<path d="M0 0 C-0.64883024 5.11389164 -2.8965109 9.41938178 -5.0703125 14.02734375 C-5.89251974 15.80636684 -6.71411576 17.58567252 -7.53515625 19.36523438 C-8.83006895 22.15743598 -10.12956295 24.94719776 -11.43994141 27.73217773 C-12.70564428 30.42851995 -13.95175336 33.13323227 -15.1953125 35.83984375 C-15.59106476 36.66814194 -15.98681702 37.49644012 -16.39456177 38.34983826 C-19.12676706 44.34808068 -19.09958919 47.70123243 -17 54 C-40.09621993 65 -40.09621993 65 -45 65 C-42.89526033 57.55277571 -40.33249159 50.34825018 -37.5625 43.125 C-31.41370103 27.78454126 -31.41370103 27.78454126 -27.75 11.75 C-27.60046875 10.65171875 -27.4509375 9.5534375 -27.296875 8.421875 C-27.19890625 7.62265625 -27.1009375 6.8234375 -27 6 C-26.34402832 5.85377197 -25.68805664 5.70754395 -25.01220703 5.55688477 C-22.04919382 4.89478972 -19.08709377 4.22869581 -16.125 3.5625 C-15.09246094 3.33240234 -14.05992187 3.10230469 -12.99609375 2.86523438 C-12.00996094 2.64287109 -11.02382813 2.42050781 -10.0078125 2.19140625 C-9.09660645 1.98717041 -8.18540039 1.78293457 -7.24658203 1.57250977 C-1.07590618 0 -1.07590618 0 0 0 Z " fill="#E21F50" transform="translate(325,722)"/>
<path d="M0 0 C4.06026821 2.03013411 6.65457376 4.42395554 9.75 7.625 C10.25660156 8.140625 10.76320313 8.65625 11.28515625 9.1875 C12.52803902 10.45383339 13.76465276 11.7263144 15 13 C16.68029297 12.15115234 16.68029297 12.15115234 18.39453125 11.28515625 C19.86713422 10.54416494 21.33979341 9.80328534 22.8125 9.0625 C23.55048828 8.68931641 24.28847656 8.31613281 25.04882812 7.93164062 C25.76103516 7.57392578 26.47324219 7.21621094 27.20703125 6.84765625 C28.18893433 6.3527771 28.18893433 6.3527771 29.19067383 5.84790039 C31 5 31 5 34 4 C32.66319304 8.3348886 30.96681756 12.22805127 28.875 16.25 C26.74466171 19.94632249 26.74466171 19.94632249 26 24 C27.58737399 25.56648858 27.58737399 25.56648858 29.625 27.1875 C33.54255909 30.50557496 36.75641233 34.0266051 40 38 C33.59641256 38.12556054 33.59641256 38.12556054 30.625 37.5 C26.81491876 36.77427024 22.87858257 37 19 37 C16.03 42.94 13.06 48.88 10 55 C9.67 55 9.34 55 9 55 C7.68 48.07 6.36 41.14 5 34 C-5.395 32.515 -5.395 32.515 -16 31 C-14.77667897 28.55335795 -13.88755702 28.25662033 -11.47265625 27.0546875 C-10.76302734 26.70019531 -10.05339844 26.34570312 -9.32226562 25.98046875 C-8.57654297 25.61566406 -7.83082031 25.25085938 -7.0625 24.875 C-5.9497168 24.31619141 -5.9497168 24.31619141 -4.81445312 23.74609375 C0.73305861 21 0.73305861 21 3 21 C2.01 14.07 1.02 7.14 0 0 Z " fill="#F6C805" transform="translate(617,631)"/>
<path d="M0 0 C2.26388045 0.90930645 3.50986235 1.92458401 5.23657227 3.64013672 C5.81020508 4.20990234 6.38383789 4.77966797 6.97485352 5.36669922 C7.85463867 6.26388672 7.85463867 6.26388672 8.75219727 7.17919922 C9.35418945 7.76958984 9.95618164 8.35998047 10.57641602 8.96826172 C11.14489258 9.54060547 11.71336914 10.11294922 12.29907227 10.70263672 C12.81824219 11.22519043 13.33741211 11.74774414 13.87231445 12.28613281 C15.00219727 13.80419922 15.00219727 13.80419922 15.00219727 16.80419922 C7.93615121 19.00809327 0.86878961 21.20771328 -6.20025826 23.40196133 C-9.48303413 24.42108756 -12.76534775 25.4416529 -16.04663086 26.46557617 C-19.82327645 27.64400652 -23.60188802 28.81605385 -27.38061523 29.98779297 C-28.55270538 30.35448593 -29.72479553 30.72117889 -30.93240356 31.09898376 C-32.03309174 31.43926102 -33.13377991 31.77953827 -34.26782227 32.13012695 C-35.23156769 32.42990952 -36.19531311 32.72969208 -37.18826294 33.03855896 C-40.11007919 33.83479618 -43.00446296 34.35623039 -45.99780273 34.80419922 C-45.99780273 33.81419922 -45.99780273 32.82419922 -45.99780273 31.80419922 C-44.64697266 30.49243164 -44.64697266 30.49243164 -42.72827148 29.15966797 C-42.01324463 28.65435547 -41.29821777 28.14904297 -40.56152344 27.62841797 C-39.77737061 27.08830078 -38.99321777 26.54818359 -38.18530273 25.99169922 C-36.53610522 24.83001702 -34.88769411 23.66721774 -33.23999023 22.50341797 C-31.9497998 21.5972876 -31.9497998 21.5972876 -30.63354492 20.67285156 C-26.31433524 17.61067753 -22.06366348 14.45687823 -17.81030273 11.30419922 C-15.56070954 9.6391221 -13.31059428 7.97524942 -11.05102539 6.32373047 C-9.69641562 5.3212226 -8.35688519 4.2979684 -7.03442383 3.25341797 C-2.50102179 -0.24512031 -2.50102179 -0.24512031 0 0 Z " fill="#F8CA04" transform="translate(200.997802734375,688.19580078125)"/>
<path d="M0 0 C16.1124842 -0.55989327 16.1124842 -0.55989327 22 3 C24 5 24 5 24.375 7.75 C23.68490292 13.73084139 19.86844281 17.69602095 15.3515625 21.3671875 C5.16688369 28.43894123 -6.29674822 33.10633258 -18 37 C-18.68320312 37.22816406 -19.36640625 37.45632813 -20.0703125 37.69140625 C-34.98312935 42.57856533 -57.07902046 49.70616022 -72.375 43.625 C-75 42 -75 42 -76 40 C-76.62763619 36.70490998 -76.50077003 34.74621787 -74.61328125 31.93359375 C-71.48660387 28.25076117 -68.45917705 25.03848094 -64 23 C-63.34 23 -62.68 23 -62 23 C-62 23.99 -62 24.98 -62 26 C-63.93359375 27.7890625 -63.93359375 27.7890625 -66.4375 29.625 C-67.26121094 30.23601563 -68.08492187 30.84703125 -68.93359375 31.4765625 C-69.95646484 32.23066406 -69.95646484 32.23066406 -71 33 C-72.29633621 34.06645115 -72.29633621 34.06645115 -72.0625 36.5625 C-72.041875 37.366875 -72.02125 38.17125 -72 39 C-60.60808199 44.695959 -41.31357703 38.58718055 -30 35 C-14.93686899 29.85806894 4.27686192 23.19484216 16 12 C17.27386949 9.40200941 17.27386949 9.40200941 18 7 C13.900639 6.0672582 9.87956712 5.71174738 5.6875 5.4375 C4.43324219 5.35371094 3.17898438 5.26992188 1.88671875 5.18359375 C0.45779297 5.09271484 0.45779297 5.09271484 -1 5 C-0.67 3.35 -0.34 1.7 0 0 Z " fill="#EFC207" transform="translate(954,707)"/>
<path d="M0 0 C0.39832031 0.47373047 0.79664063 0.94746094 1.20703125 1.43554688 C3.41144641 3.35900716 4.80938557 3.59270117 7.6875 4.03125 C9.15703125 4.26521484 9.15703125 4.26521484 10.65625 4.50390625 C11.7596875 4.66761719 12.863125 4.83132813 14 5 C15.89277828 5.30022008 17.78555281 5.60046428 19.67822266 5.90136719 C23.11721935 6.44458659 26.55867999 6.9717342 30 7.5 C39.02225239 8.8849765 48.03038762 10.29919426 57 12 C52.61528333 14.33565582 48.10190586 15.45593849 43.3125 16.6875 C42.45205078 16.92533203 41.59160156 17.16316406 40.70507812 17.40820312 C33.93105477 19.14892804 28.45814146 18.95711248 21.66848755 17.49945068 C19.15901593 17.02976241 16.75550731 16.77238752 14.2097168 16.61108398 C12.82885139 16.5211039 12.82885139 16.5211039 11.42008972 16.42930603 C10.4397023 16.36884598 9.45931488 16.30838593 8.44921875 16.24609375 C7.43527542 16.18092056 6.42133209 16.11574738 5.37666321 16.04859924 C2.14713436 15.84174151 -1.08266776 15.63955973 -4.3125 15.4375 C-6.50587904 15.29783453 -8.69923868 15.15786411 -10.89257812 15.01757812 C-16.26149895 14.67485019 -21.63065153 14.335958 -27 14 C-24.02133832 11.6127804 -21.02634179 9.92910585 -17.578125 8.30078125 C-16.55332031 7.81416016 -15.52851563 7.32753906 -14.47265625 6.82617188 C-13.40917969 6.32666016 -12.34570312 5.82714844 -11.25 5.3125 C-10.17105469 4.80138672 -9.09210938 4.29027344 -7.98046875 3.76367188 C-5.32217776 2.50510047 -2.66199771 1.25070732 0 0 Z " fill="#DF1F50" transform="translate(194,617)"/>
<path d="M0 0 C2.88106457 0.94129143 4.17538379 1.9839789 6.28027344 4.14038086 C6.93640625 4.80489258 7.59253906 5.4694043 8.26855469 6.15405273 C8.93757813 6.85208008 9.60660156 7.55010742 10.29589844 8.26928711 C11.32263672 9.31052734 11.32263672 9.31052734 12.37011719 10.37280273 C18.52256991 16.66536082 18.52256991 16.66536082 18.60839844 20.95678711 C18.58777344 21.90553711 18.56714844 22.85428711 18.54589844 23.83178711 C13.58954879 26.52292031 8.5985649 28.20294464 3.22949219 29.82788086 C2.33657974 30.10269791 1.4436673 30.37751495 0.5236969 30.66065979 C-2.32158311 31.53513704 -5.16901985 32.4023379 -8.01660156 33.26928711 C-9.90281754 33.84757977 -11.78888671 34.42635148 -13.67480469 35.00561523 C-17.30285864 36.11972889 -20.93279421 37.22739103 -24.56396484 38.33129883 C-27.54504788 39.24006818 -30.51763503 40.16798504 -33.48095703 41.13305664 C-34.61549316 41.49898926 -35.7500293 41.86492188 -36.91894531 42.24194336 C-38.33421509 42.7099939 -38.33421509 42.7099939 -39.77807617 43.1875 C-42.79523974 43.91392046 -45.36193075 44.08143175 -48.45410156 43.83178711 C-50.45410156 41.83178711 -50.45410156 41.83178711 -51.07910156 39.14428711 C-49.69258601 31.79575468 -39.99457497 26.90393226 -34.14160156 22.76928711 C-32.57064555 21.64779215 -31.00035701 20.52536173 -29.43066406 19.40209961 C-28.62145508 18.82363281 -27.81224609 18.24516602 -26.97851562 17.64916992 C-21.80339002 13.92347988 -16.6851634 10.12004669 -11.56030273 6.32568359 C-10.42685425 5.48759155 -10.42685425 5.48759155 -9.27050781 4.63256836 C-8.6047876 4.13926025 -7.93906738 3.64595215 -7.25317383 3.13769531 C-2.67770562 -0.18353951 -2.67770562 -0.18353951 0 0 Z M-6.27050781 7.43725586 C-7.0262207 8.00259033 -7.78193359 8.5679248 -8.56054688 9.15039062 C-9.37104492 9.76712646 -10.18154297 10.3838623 -11.01660156 11.01928711 C-12.73082696 12.3039668 -14.44568688 13.58780017 -16.16113281 14.87084961 C-17.03721191 15.52859375 -17.91329102 16.18633789 -18.81591797 16.86401367 C-22.91257079 19.91963293 -27.05582344 22.90932194 -31.20410156 25.89428711 C-32.2918689 26.67872192 -32.2918689 26.67872192 -33.40161133 27.47900391 C-34.09440186 27.97827393 -34.78719238 28.47754395 -35.50097656 28.99194336 C-36.15904297 29.46905762 -36.81710938 29.94617188 -37.49511719 30.43774414 C-38.8224085 31.38226475 -40.16567593 32.30465818 -41.52246094 33.20629883 C-43.21570008 34.34460729 -44.84234119 35.58077415 -46.45410156 36.83178711 C-46.45410156 37.82178711 -46.45410156 38.81178711 -46.45410156 39.83178711 C-39.22351411 38.3426501 -32.24615005 36.33010172 -25.20019531 34.13647461 C-24.0587355 33.78416779 -22.9172757 33.43186096 -21.7412262 33.06887817 C-18.12364902 31.9514986 -14.5076131 30.82922174 -10.89160156 29.70678711 C-8.42750931 28.94474346 -5.96331759 28.18302135 -3.49902344 27.42163086 C2.51710634 25.56206837 8.53198097 23.69849113 14.54589844 21.83178711 C13.82638827 18.59193263 13.06564474 16.96841625 10.70996094 14.59741211 C10.14019531 14.0237793 9.57042969 13.45014648 8.98339844 12.85913086 C8.38527344 12.27260742 7.78714844 11.68608398 7.17089844 11.08178711 C6.58050781 10.47979492 5.99011719 9.87780273 5.38183594 9.25756836 C4.80949219 8.6890918 4.23714844 8.12061523 3.64746094 7.53491211 C3.12490723 7.01574219 2.60235352 6.49657227 2.06396484 5.96166992 C-1.23857007 3.50362368 -3.44293541 5.29749909 -6.27050781 7.43725586 Z " fill="#27243F" transform="translate(201.4541015625,683.168212890625)"/>
<path d="M0 0 C-3.94550996 15.72607517 -3.94550996 15.72607517 -7.82752991 18.13319397 C-10.15327045 19.06115424 -11.82754124 19.27052703 -14.32202148 19.30639648 C-15.16647324 19.32238388 -16.01092499 19.33837128 -16.88096619 19.35484314 C-17.78520828 19.36020584 -18.68945038 19.36556854 -19.62109375 19.37109375 C-20.55800552 19.38012222 -21.4949173 19.3891507 -22.46022034 19.39845276 C-24.43967497 19.41294524 -26.41917741 19.42183951 -28.39868164 19.42553711 C-31.42350967 19.43744492 -34.44630478 19.4866494 -37.47070312 19.53710938 C-39.39582339 19.5465727 -41.32095617 19.55380817 -43.24609375 19.55859375 C-44.59942055 19.58789223 -44.59942055 19.58789223 -45.98008728 19.61778259 C-50.44306848 19.58578087 -52.41515737 19.42973558 -56.10961914 16.71508789 C-58 14 -58 14 -58 10 C-57.31599121 9.95512451 -56.63198242 9.91024902 -55.92724609 9.86401367 C-39.3053271 8.74181753 -24.09086813 6.87393928 -8.23803711 1.62573242 C-5.35938495 0.67851619 -3.05405697 0 0 0 Z " fill="#E01F50" transform="translate(944,745)"/>
<path d="M0 0 C2.221871 1.67270363 3.94330564 3.19244913 5.8359375 5.1796875 C6.62226059 5.9716301 6.62226059 5.9716301 7.42446899 6.77957153 C8.52558767 7.89409767 9.61950552 9.01577862 10.70654297 10.14404297 C12.37617665 11.87622072 14.06644499 13.58591202 15.76171875 15.29296875 C16.82938713 16.37896895 17.89583749 17.46616824 18.9609375 18.5546875 C19.72016006 19.3266597 19.72016006 19.3266597 20.49472046 20.11422729 C24 23.76556972 24 23.76556972 24 26 C24.66 26 25.32 26 26 26 C26 26.66 26 27.32 26 28 C24.42085985 28.53341184 22.83645613 29.05125763 21.25 29.5625 C20.36828125 29.85253906 19.4865625 30.14257812 18.578125 30.44140625 C15.80567455 31.04210385 14.64012078 30.90496679 12 30 C9.86741898 28.12308678 7.89681581 26.24557949 5.921875 24.21484375 C5.35043762 23.63916153 4.77900024 23.06347931 4.19024658 22.47035217 C2.36966198 20.63299681 0.55979432 18.78547868 -1.25 16.9375 C-2.48368253 15.68876862 -3.71804978 14.44071331 -4.953125 13.19335938 C-7.97674655 10.1366898 -10.99079921 7.07086474 -14 4 C-10.19917688 0.19917688 -5.21018758 -0.62361319 0 0 Z " fill="#F6C805" transform="translate(229,663)"/>
<path d="M0 0 C0.33 0.66 0.66 1.32 1 2 C1.66 2 2.32 2 3 2 C2.54917531 3.46067199 2.08906463 4.91848032 1.625 6.375 C1.36976563 7.18710937 1.11453125 7.99921875 0.8515625 8.8359375 C0 11 0 11 -2 13 C-1.48041715 8.62065881 -0.94324258 4.31196609 0 0 Z " fill="#203D5A" transform="translate(664,719)"/>
</svg>
